<svg xmlns="http://www.w3.org/2000/svg" xmlns:xlink="http://www.w3.org/1999/xlink" width="570" zoomAndPan="magnify" viewBox="0 0 427.5 314.999992" height="420" preserveAspectRatio="xMidYMid meet" version="1.0"><defs><filter x="0%" y="0%" width="100%" height="100%" id="8b03008239"><feColorMatrix values="0 0 0 0 1 0 0 0 0 1 0 0 0 0 1 0 0 0 1 0" color-interpolation-filters="sRGB"/></filter><g/><clipPath id="64cbcad884"><path d="M 0 0.183594 L 427 0.183594 L 427 314.816406 L 0 314.816406 Z M 0 0.183594 " clip-rule="nonzero"/></clipPath><mask id="788ed7a9c7"><g filter="url(#8b03008239)"><rect x="-42.75" width="513" fill="#000000" y="-31.499999" height="377.99999" fill-opacity="0.53"/></g></mask><clipPath id="033c5ac051"><path d="M 365 17 L 398 17 L 398 75 L 365 75 Z M 365 17 " clip-rule="nonzero"/></clipPath><clipPath id="323465f495"><rect x="0" width="398" y="0" height="98"/></clipPath><mask id="f0828b64f5"><g filter="url(#8b03008239)"><rect x="-42.75" width="513" fill="#000000" y="-31.499999" height="377.99999" fill-opacity="0.74"/></g></mask><clipPath id="e06c2e717c"><path d="M 0 17 L 22 17 L 22 78 L 0 78 Z M 0 17 " clip-rule="nonzero"/></clipPath><clipPath id="c484c1b5d1"><rect x="0" width="411" y="0" height="101"/></clipPath></defs><g clip-path="url(#64cbcad884)"><path fill="#ffffff" d="M 0 0.183594 L 427 0.183594 L 427 314.816406 L 0 314.816406 Z M 0 0.183594 " fill-opacity="1" fill-rule="nonzero"/><path fill="#eccbb0" d="M 0 0.183594 L 427 0.183594 L 427 314.816406 L 0 314.816406 Z M 0 0.183594 " fill-opacity="1" fill-rule="nonzero"/></g><g mask="url(#788ed7a9c7)"><g transform="matrix(1, 0, 0, 1, 29, 91)"><g clip-path="url(#323465f495)"><g fill="#b76e22" fill-opacity="1"><g transform="translate(4.909473, 74.546052)"><g><path d="M 9.140625 0.53125 C 4.984375 0.53125 1.957031 -0.769531 0.0625 -3.375 C -1.832031 -5.988281 -2.253906 -9.570312 -1.203125 -14.125 L 4.84375 -40.390625 C 6.164062 -46.046875 8.285156 -50.3125 11.203125 -53.1875 C 14.117188 -56.0625 17.988281 -57.5 22.8125 -57.5 C 27.007812 -57.5 30.125 -56.347656 32.15625 -54.046875 C 34.1875 -51.742188 34.695312 -48.425781 33.6875 -44.09375 L 31.421875 -34.28125 L 20.09375 -34.28125 L 22.078125 -42.703125 C 22.429688 -44.335938 22.484375 -45.460938 22.234375 -46.078125 C 21.992188 -46.703125 21.390625 -47.015625 20.421875 -47.015625 C 19.398438 -47.015625 18.613281 -46.660156 18.0625 -45.953125 C 17.507812 -45.242188 17.078125 -44.207031 16.765625 -42.84375 L 10.140625 -14.25 C 9.828125 -12.75 9.800781 -11.65625 10.0625 -10.96875 C 10.332031 -10.289062 10.910156 -9.953125 11.796875 -9.953125 C 13.566406 -9.953125 14.785156 -11.382812 15.453125 -14.25 L 17.828125 -24.53125 L 29.3125 -24.53125 L 26.859375 -13.796875 C 24.640625 -4.242188 18.734375 0.53125 9.140625 0.53125 Z M 9.140625 0.53125 "/></g></g></g><g fill="#b76e22" fill-opacity="1"><g transform="translate(51.720671, 74.546052)"><g><path d="M -3.984375 0 L 9.140625 -56.96875 L 20.484375 -56.96875 L 15.78125 -36.609375 L 21.15625 -36.609375 L 25.859375 -56.96875 L 37.203125 -56.96875 L 24.0625 0 L 12.734375 0 L 18.703125 -25.859375 L 13.328125 -25.859375 L 7.359375 0 Z M -3.984375 0 "/></g></g></g><g fill="#b76e22" fill-opacity="1"><g transform="translate(100.189309, 74.546052)"><g><path d="M -5.5 0 L 13.125 -56.96875 L 32.421875 -56.96875 L 24.734375 0 L 13.921875 0 L 15.25 -9.21875 L 8.359375 -9.21875 L 5.5625 0 Z M 11.328125 -18.296875 L 16.515625 -18.296875 L 20.625 -47.28125 L 20.09375 -47.28125 Z M 11.328125 -18.296875 "/></g></g></g><g fill="#b76e22" fill-opacity="1"><g transform="translate(147.729777, 74.546052)"><g><path d="M -3.984375 0 L 9.140625 -56.96875 L 20.546875 -56.96875 L 9.671875 -9.6875 L 21.421875 -9.6875 L 19.15625 0 Z M -3.984375 0 "/></g></g></g><g fill="#b76e22" fill-opacity="1"><g transform="translate(189.43602, 74.546052)"><g><path d="M -3.984375 0 L 9.140625 -56.96875 L 20.546875 -56.96875 L 9.671875 -9.6875 L 21.421875 -9.6875 L 19.15625 0 Z M -3.984375 0 "/></g></g></g><g fill="#b76e22" fill-opacity="1"><g transform="translate(231.142262, 74.546052)"><g><path d="M -3.984375 0 L 9.140625 -56.96875 L 31.953125 -56.96875 L 29.4375 -45.953125 L 18.234375 -45.953125 L 15.640625 -34.875 L 26.390625 -34.875 L 23.9375 -24.140625 L 13.1875 -24.140625 L 10.140625 -11.078125 L 22.078125 -11.078125 L 19.5625 0 Z M -3.984375 0 "/></g></g></g><g fill="#b76e22" fill-opacity="1"><g transform="translate(273.842975, 74.546052)"><g><path d="M -3.984375 0 L 9.140625 -56.96875 L 20.890625 -56.96875 L 19.828125 -29.703125 L 26.125 -56.96875 L 37.125 -56.96875 L 24 0 L 12.859375 0 L 13.71875 -28.515625 L 7.15625 0 Z M -3.984375 0 "/></g></g></g><g fill="#b76e22" fill-opacity="1"><g transform="translate(322.245311, 74.546052)"><g><path d="M 7.625 0.53125 C 3.507812 0.53125 0.78125 -0.914062 -0.5625 -3.8125 C -1.914062 -6.707031 -1.90625 -11.09375 -0.53125 -16.96875 L 5.109375 -41.515625 C 6.335938 -46.773438 8.429688 -50.753906 11.390625 -53.453125 C 14.359375 -56.148438 18.164062 -57.5 22.8125 -57.5 C 26.5625 -57.5 29.296875 -56.742188 31.015625 -55.234375 C 32.742188 -53.734375 33.675781 -51.546875 33.8125 -48.671875 C 33.945312 -45.796875 33.503906 -42.101562 32.484375 -37.59375 L 21.34375 -37.59375 L 22.546875 -42.703125 C 22.847656 -44.078125 22.898438 -45.140625 22.703125 -45.890625 C 22.503906 -46.640625 21.921875 -47.015625 20.953125 -47.015625 C 18.785156 -47.015625 17.367188 -45.597656 16.703125 -42.765625 L 10.34375 -15.1875 C 9.945312 -13.457031 9.859375 -12.148438 10.078125 -11.265625 C 10.296875 -10.390625 10.957031 -9.953125 12.0625 -9.953125 C 13.164062 -9.953125 14.050781 -10.390625 14.71875 -11.265625 C 15.382812 -12.148438 15.914062 -13.457031 16.3125 -15.1875 L 18.171875 -23.34375 L 15.109375 -23.34375 L 17.375 -33.15625 L 31.296875 -33.15625 L 23.671875 0 L 19.09375 0 L 18.234375 -4.78125 C 15.398438 -1.238281 11.863281 0.53125 7.625 0.53125 Z M 7.625 0.53125 "/></g></g></g><g clip-path="url(#033c5ac051)"><g fill="#b76e22" fill-opacity="1"><g transform="translate(369.785788, 74.546052)"><g><path d="M -3.984375 0 L 9.140625 -56.96875 L 31.953125 -56.96875 L 29.4375 -45.953125 L 18.234375 -45.953125 L 15.640625 -34.875 L 26.390625 -34.875 L 23.9375 -24.140625 L 13.1875 -24.140625 L 10.140625 -11.078125 L 22.078125 -11.078125 L 19.5625 0 Z M -3.984375 0 "/></g></g></g></g></g></g></g><g mask="url(#f0828b64f5)"><g transform="matrix(1, 0, 0, 1, 0, 22)"><g clip-path="url(#c484c1b5d1)"><g clip-path="url(#e06c2e717c)"><g fill="#e080b4" fill-opacity="1"><g transform="translate(-14.741098, 76.853152)"><g><path d="M 9.515625 0.546875 C 5.191406 0.546875 2.039062 -0.804688 0.0625 -3.515625 C -1.914062 -6.234375 -2.351562 -9.960938 -1.25 -14.703125 L 5.03125 -42.015625 C 6.40625 -47.910156 8.609375 -52.351562 11.640625 -55.34375 C 14.679688 -58.332031 18.710938 -59.828125 23.734375 -59.828125 C 28.097656 -59.828125 31.335938 -58.628906 33.453125 -56.234375 C 35.566406 -53.835938 36.097656 -50.390625 35.046875 -45.890625 L 32.703125 -35.671875 L 20.90625 -35.671875 L 22.96875 -44.4375 C 23.332031 -46.132812 23.390625 -47.304688 23.140625 -47.953125 C 22.890625 -48.597656 22.257812 -48.921875 21.25 -48.921875 C 20.1875 -48.921875 19.367188 -48.550781 18.796875 -47.8125 C 18.222656 -47.082031 17.773438 -46.003906 17.453125 -44.578125 L 10.546875 -14.828125 C 10.222656 -13.265625 10.195312 -12.125 10.46875 -11.40625 C 10.75 -10.695312 11.351562 -10.34375 12.28125 -10.34375 C 14.113281 -10.34375 15.378906 -11.835938 16.078125 -14.828125 L 18.546875 -25.53125 L 30.484375 -25.53125 L 27.9375 -14.359375 C 25.632812 -4.421875 19.492188 0.546875 9.515625 0.546875 Z M 9.515625 0.546875 "/></g></g></g></g><g fill="#e080b4" fill-opacity="1"><g transform="translate(33.962372, 76.853152)"><g><path d="M -4.140625 0 L 9.515625 -59.265625 L 21.3125 -59.265625 L 16.421875 -38.09375 L 22 -38.09375 L 26.90625 -59.265625 L 38.703125 -59.265625 L 25.046875 0 L 13.234375 0 L 19.453125 -26.90625 L 13.859375 -26.90625 L 7.65625 0 Z M -4.140625 0 "/></g></g></g><g fill="#e080b4" fill-opacity="1"><g transform="translate(84.390281, 76.853152)"><g><path d="M -5.734375 0 L 13.65625 -59.265625 L 33.734375 -59.265625 L 25.734375 0 L 14.484375 0 L 15.859375 -9.59375 L 8.6875 -9.59375 L 5.796875 0 Z M 11.796875 -19.046875 L 17.171875 -19.046875 L 21.453125 -49.203125 L 20.90625 -49.203125 Z M 11.796875 -19.046875 "/></g></g></g><g fill="#e080b4" fill-opacity="1"><g transform="translate(133.8525, 76.853152)"><g><path d="M -4.140625 0 L 9.515625 -59.265625 L 21.390625 -59.265625 L 10.0625 -10.078125 L 22.28125 -10.078125 L 19.9375 0 Z M -4.140625 0 "/></g></g></g><g fill="#e080b4" fill-opacity="1"><g transform="translate(177.244654, 76.853152)"><g><path d="M -4.140625 0 L 9.515625 -59.265625 L 21.390625 -59.265625 L 10.0625 -10.078125 L 22.28125 -10.078125 L 19.9375 0 Z M -4.140625 0 "/></g></g></g><g fill="#e080b4" fill-opacity="1"><g transform="translate(220.636808, 76.853152)"><g><path d="M -4.140625 0 L 9.515625 -59.265625 L 33.25 -59.265625 L 30.625 -47.8125 L 18.96875 -47.8125 L 16.28125 -36.296875 L 27.453125 -36.296875 L 24.90625 -25.109375 L 13.71875 -25.109375 L 10.546875 -11.515625 L 22.96875 -11.515625 L 20.34375 0 Z M -4.140625 0 "/></g></g></g><g fill="#e080b4" fill-opacity="1"><g transform="translate(265.063632, 76.853152)"><g><path d="M -4.140625 0 L 9.515625 -59.265625 L 21.734375 -59.265625 L 20.625 -30.90625 L 27.171875 -59.265625 L 38.640625 -59.265625 L 24.96875 0 L 13.375 0 L 14.28125 -29.671875 L 7.453125 0 Z M -4.140625 0 "/></g></g></g><g fill="#e080b4" fill-opacity="1"><g transform="translate(315.422559, 76.853152)"><g><path d="M 7.921875 0.546875 C 3.648438 0.546875 0.8125 -0.957031 -0.59375 -3.96875 C -2 -6.976562 -1.988281 -11.539062 -0.5625 -17.65625 L 5.3125 -43.1875 C 6.59375 -48.664062 8.773438 -52.804688 11.859375 -55.609375 C 14.941406 -58.421875 18.898438 -59.828125 23.734375 -59.828125 C 27.640625 -59.828125 30.488281 -59.039062 32.28125 -57.46875 C 34.070312 -55.90625 35.035156 -53.628906 35.171875 -50.640625 C 35.316406 -47.648438 34.859375 -43.8125 33.796875 -39.125 L 22.21875 -39.125 L 23.453125 -44.4375 C 23.773438 -45.863281 23.832031 -46.96875 23.625 -47.75 C 23.414062 -48.53125 22.804688 -48.921875 21.796875 -48.921875 C 19.546875 -48.921875 18.070312 -47.445312 17.375 -44.5 L 10.75 -15.796875 C 10.34375 -14.003906 10.253906 -12.644531 10.484375 -11.71875 C 10.710938 -10.800781 11.398438 -10.34375 12.546875 -10.34375 C 13.703125 -10.34375 14.625 -10.800781 15.3125 -11.71875 C 16 -12.644531 16.550781 -14.003906 16.96875 -15.796875 L 18.90625 -24.28125 L 15.71875 -24.28125 L 18.078125 -34.5 L 32.5625 -34.5 L 24.625 0 L 19.859375 0 L 18.96875 -4.96875 C 16.019531 -1.289062 12.335938 0.546875 7.921875 0.546875 Z M 7.921875 0.546875 "/></g></g></g><g fill="#e080b4" fill-opacity="1"><g transform="translate(364.884787, 76.853152)"><g><path d="M -4.140625 0 L 9.515625 -59.265625 L 33.25 -59.265625 L 30.625 -47.8125 L 18.96875 -47.8125 L 16.28125 -36.296875 L 27.453125 -36.296875 L 24.90625 -25.109375 L 13.71875 -25.109375 L 10.546875 -11.515625 L 22.96875 -11.515625 L 20.34375 0 Z M -4.140625 0 "/></g></g></g></g></g></g><g fill="#ff00ff" fill-opacity="1"><g transform="translate(34.125435, 122.41373)"><g><path d="M 24.625 -30.53125 C 23.882812 -31.269531 22.925781 -31.90625 21.75 -32.4375 C 20.570312 -32.96875 19.0625 -33.234375 17.21875 -33.234375 C 14.507812 -33.234375 12.144531 -32.75 10.125 -31.78125 C 8.113281 -30.8125 6.4375 -29.535156 5.09375 -27.953125 C 3.757812 -26.378906 2.753906 -24.578125 2.078125 -22.546875 C 1.398438 -20.515625 1.0625 -18.429688 1.0625 -16.296875 C 1.0625 -14.171875 1.398438 -12.097656 2.078125 -10.078125 C 2.753906 -8.066406 3.757812 -6.269531 5.09375 -4.6875 C 6.4375 -3.113281 8.113281 -1.84375 10.125 -0.875 C 12.144531 0.09375 14.492188 0.578125 17.171875 0.578125 C 18.398438 0.578125 19.488281 0.441406 20.4375 0.171875 C 21.382812 -0.0976562 22.207031 -0.425781 22.90625 -0.8125 C 23.601562 -1.207031 24.175781 -1.613281 24.625 -2.03125 C 25.070312 -2.445312 25.410156 -2.800781 25.640625 -3.09375 L 27.578125 -0.34375 C 27.796875 -0.0195312 27.988281 0.140625 28.15625 0.140625 C 28.3125 0.140625 28.390625 -0.0351562 28.390625 -0.390625 L 28.390625 -11.421875 C 28.390625 -11.835938 28.265625 -12.046875 28.015625 -12.046875 C 27.785156 -12.046875 27.625 -11.835938 27.53125 -11.421875 C 27.425781 -10.898438 27.273438 -10.257812 27.078125 -9.5 C 26.890625 -8.75 26.632812 -7.960938 26.3125 -7.140625 C 25.988281 -6.316406 25.578125 -5.492188 25.078125 -4.671875 C 24.578125 -3.847656 23.957031 -3.113281 23.21875 -2.46875 C 22.476562 -1.820312 21.613281 -1.296875 20.625 -0.890625 C 19.644531 -0.492188 18.492188 -0.296875 17.171875 -0.296875 C 15.984375 -0.296875 14.957031 -0.472656 14.09375 -0.828125 C 13.238281 -1.179688 12.53125 -1.847656 11.96875 -2.828125 C 11.40625 -3.816406 10.992188 -5.195312 10.734375 -6.96875 C 10.484375 -8.738281 10.359375 -11.046875 10.359375 -13.890625 L 10.359375 -18.71875 C 10.359375 -21.59375 10.453125 -23.921875 10.640625 -25.703125 C 10.835938 -27.492188 11.191406 -28.878906 11.703125 -29.859375 C 12.222656 -30.847656 12.945312 -31.507812 13.875 -31.84375 C 14.8125 -32.1875 16.039062 -32.359375 17.5625 -32.359375 C 18.75 -32.359375 19.8125 -32.15625 20.75 -31.75 C 21.6875 -31.351562 22.53125 -30.765625 23.28125 -29.984375 C 24.039062 -29.210938 24.710938 -28.28125 25.296875 -27.1875 C 25.878906 -26.09375 26.410156 -24.851562 26.890625 -23.46875 C 26.992188 -23.144531 27.171875 -22.984375 27.421875 -22.984375 C 27.648438 -22.984375 27.765625 -23.144531 27.765625 -23.46875 L 27.765625 -32.03125 C 27.765625 -32.539062 27.570312 -32.796875 27.1875 -32.796875 C 26.925781 -32.796875 26.6875 -32.648438 26.46875 -32.359375 Z M 24.625 -30.53125 "/></g></g></g><g fill="#ff00ff" fill-opacity="1"><g transform="translate(75.536552, 122.41373)"><g><path d="M 14.84375 -32.65625 L 1.84375 -32.65625 L 1.84375 -31.875 L 4.453125 -31.875 L 4.453125 -0.78125 L 1.84375 -0.78125 L 1.84375 0 L 14.84375 0 L 14.84375 -0.78125 L 12.234375 -0.78125 L 12.234375 -16.890625 L 21.375 -16.890625 L 21.375 -0.78125 L 18.765625 -0.78125 L 18.765625 0 L 31.78125 0 L 31.78125 -0.78125 L 29.171875 -0.78125 L 29.171875 -31.921875 L 31.78125 -31.921875 L 31.78125 -32.703125 L 18.765625 -32.703125 L 18.765625 -31.921875 L 21.375 -31.921875 L 21.375 -17.953125 L 12.234375 -17.953125 L 12.234375 -31.875 L 14.84375 -31.875 Z M 14.84375 -32.65625 "/></g></g></g><g fill="#ff00ff" fill-opacity="1"><g transform="translate(120.043794, 122.41373)"><g><path d="M 15.09375 -32.9375 L 5.328125 -3.296875 C 5.097656 -2.617188 4.679688 -2.03125 4.078125 -1.53125 C 3.484375 -1.03125 2.671875 -0.78125 1.640625 -0.78125 L 1.640625 0 L 8.953125 0 L 8.953125 -0.78125 C 8.367188 -0.78125 7.898438 -0.832031 7.546875 -0.9375 C 7.191406 -1.050781 6.914062 -1.195312 6.71875 -1.375 C 6.53125 -1.550781 6.398438 -1.742188 6.328125 -1.953125 C 6.265625 -2.171875 6.234375 -2.359375 6.234375 -2.515625 C 6.234375 -2.710938 6.238281 -2.878906 6.25 -3.015625 C 6.269531 -3.160156 6.332031 -3.363281 6.4375 -3.625 L 8.46875 -10.109375 L 18.1875 -10.109375 L 21.28125 -0.78125 L 18.671875 -0.78125 L 18.671875 0 L 31.6875 0 L 31.6875 -0.78125 L 29.078125 -0.78125 L 18.4375 -32.9375 Z M 13.296875 -24.859375 L 17.90625 -10.890625 L 8.75 -10.890625 Z M 13.296875 -24.859375 "/></g></g></g><g fill="#ff00ff" fill-opacity="1"><g transform="translate(164.018891, 122.41373)"><g><path d="M 1.984375 -0.78125 L 1.984375 0 L 25.828125 0 L 25.828125 -9.390625 C 25.828125 -9.898438 25.648438 -10.15625 25.296875 -10.15625 C 25.035156 -10.15625 24.875 -9.976562 24.8125 -9.625 C 24.65625 -8.394531 24.40625 -7.25 24.0625 -6.1875 C 23.726562 -5.125 23.273438 -4.195312 22.703125 -3.40625 C 22.140625 -2.613281 21.460938 -1.992188 20.671875 -1.546875 C 19.890625 -1.097656 18.96875 -0.875 17.90625 -0.875 L 12.390625 -0.875 L 12.390625 -31.875 L 15 -31.875 L 15 -32.65625 L 1.984375 -32.65625 L 1.984375 -31.875 L 4.59375 -31.875 L 4.59375 -0.78125 Z M 1.984375 -0.78125 "/></g></g></g><g fill="#ff00ff" fill-opacity="1"><g transform="translate(202.866029, 122.41373)"><g><path d="M 1.984375 -0.78125 L 1.984375 0 L 25.828125 0 L 25.828125 -9.390625 C 25.828125 -9.898438 25.648438 -10.15625 25.296875 -10.15625 C 25.035156 -10.15625 24.875 -9.976562 24.8125 -9.625 C 24.65625 -8.394531 24.40625 -7.25 24.0625 -6.1875 C 23.726562 -5.125 23.273438 -4.195312 22.703125 -3.40625 C 22.140625 -2.613281 21.460938 -1.992188 20.671875 -1.546875 C 19.890625 -1.097656 18.96875 -0.875 17.90625 -0.875 L 12.390625 -0.875 L 12.390625 -31.875 L 15 -31.875 L 15 -32.65625 L 1.984375 -32.65625 L 1.984375 -31.875 L 4.59375 -31.875 L 4.59375 -0.78125 Z M 1.984375 -0.78125 "/></g></g></g><g fill="#ff00ff" fill-opacity="1"><g transform="translate(241.713154, 122.41373)"><g><path d="M 19.34375 -10.984375 C 19.664062 -10.984375 19.828125 -11.273438 19.828125 -11.859375 L 19.828125 -22.390625 C 19.828125 -22.972656 19.664062 -23.265625 19.34375 -23.265625 C 19.0625 -23.265625 18.898438 -22.972656 18.859375 -22.390625 C 18.703125 -20.785156 18.289062 -19.570312 17.625 -18.75 C 16.96875 -17.925781 16.023438 -17.515625 14.796875 -17.515625 L 11.859375 -17.515625 L 11.859375 -31.875 L 15.578125 -31.875 C 16.835938 -31.875 17.941406 -31.648438 18.890625 -31.203125 C 19.835938 -30.753906 20.640625 -30.164062 21.296875 -29.4375 C 21.960938 -28.707031 22.460938 -27.890625 22.796875 -26.984375 C 23.140625 -26.085938 23.34375 -25.1875 23.40625 -24.28125 C 23.40625 -23.863281 23.566406 -23.65625 23.890625 -23.65625 C 24.210938 -23.65625 24.375 -23.863281 24.375 -24.28125 L 24 -31.296875 C 23.96875 -31.816406 23.820312 -32.171875 23.5625 -32.359375 C 23.300781 -32.554688 22.929688 -32.65625 22.453125 -32.65625 L 1.453125 -32.65625 L 1.453125 -31.875 L 4.0625 -31.875 L 4.0625 -0.78125 L 1.453125 -0.78125 L 1.453125 0 L 24.421875 0 C 24.941406 0 25.289062 -0.128906 25.46875 -0.390625 C 25.644531 -0.648438 25.734375 -1.003906 25.734375 -1.453125 L 25.734375 -9.390625 C 25.734375 -9.898438 25.570312 -10.15625 25.25 -10.15625 C 24.925781 -10.15625 24.71875 -9.898438 24.625 -9.390625 C 24.363281 -8.191406 24.085938 -7.066406 23.796875 -6.015625 C 23.503906 -4.972656 23.066406 -4.0625 22.484375 -3.28125 C 21.910156 -2.507812 21.144531 -1.898438 20.1875 -1.453125 C 19.238281 -1.003906 17.992188 -0.78125 16.453125 -0.78125 L 11.859375 -0.78125 L 11.859375 -16.734375 L 14.796875 -16.734375 C 16.023438 -16.734375 16.96875 -16.328125 17.625 -15.515625 C 18.289062 -14.710938 18.703125 -13.492188 18.859375 -11.859375 C 18.898438 -11.273438 19.0625 -10.984375 19.34375 -10.984375 Z M 19.34375 -10.984375 "/></g></g></g><g fill="#ff00ff" fill-opacity="1"><g transform="translate(280.366781, 122.41373)"><g><path d="M 22.296875 -31.875 C 22.972656 -31.875 23.578125 -31.664062 24.109375 -31.25 C 24.640625 -30.832031 24.90625 -30.203125 24.90625 -29.359375 L 24.90625 -12.53125 L 10.984375 -32.65625 L 1.546875 -32.65625 L 1.546875 -31.4375 L 4.59375 -27.71875 L 4.59375 -3.296875 C 4.59375 -2.453125 4.328125 -1.820312 3.796875 -1.40625 C 3.265625 -0.988281 2.660156 -0.78125 1.984375 -0.78125 L 1.984375 0 L 8.03125 0 L 8.03125 -0.78125 C 7.382812 -0.78125 6.785156 -0.988281 6.234375 -1.40625 C 5.691406 -1.820312 5.421875 -2.453125 5.421875 -3.296875 L 5.421875 -26.5625 L 24.09375 0.390625 L 25.734375 0.390625 L 25.734375 -29.453125 C 25.734375 -30.265625 26.003906 -30.867188 26.546875 -31.265625 C 27.097656 -31.671875 27.695312 -31.875 28.34375 -31.875 L 28.34375 -32.65625 L 22.296875 -32.65625 Z M 22.296875 -31.875 "/></g></g></g><g fill="#ff00ff" fill-opacity="1"><g transform="translate(321.052242, 122.41373)"><g><path d="M 28.59375 -33.046875 C 28.425781 -33.046875 28.234375 -32.929688 28.015625 -32.703125 L 26.171875 -30.8125 C 25.878906 -31.039062 25.503906 -31.289062 25.046875 -31.5625 C 24.597656 -31.832031 24.023438 -32.085938 23.328125 -32.328125 C 22.640625 -32.578125 21.820312 -32.789062 20.875 -32.96875 C 19.925781 -33.144531 18.789062 -33.234375 17.46875 -33.234375 C 14.757812 -33.234375 12.378906 -32.738281 10.328125 -31.75 C 8.273438 -30.769531 6.5625 -29.484375 5.1875 -27.890625 C 3.820312 -26.296875 2.789062 -24.476562 2.09375 -22.4375 C 1.40625 -20.40625 1.0625 -18.34375 1.0625 -16.25 C 1.0625 -14.15625 1.40625 -12.097656 2.09375 -10.078125 C 2.789062 -8.066406 3.832031 -6.269531 5.21875 -4.6875 C 6.601562 -3.113281 8.335938 -1.84375 10.421875 -0.875 C 12.503906 0.09375 14.929688 0.578125 17.703125 0.578125 C 19.472656 0.578125 21.082031 0.390625 22.53125 0.015625 C 23.988281 -0.347656 25.289062 -0.828125 26.4375 -1.421875 C 27.582031 -2.023438 28.570312 -2.6875 29.40625 -3.40625 C 30.25 -4.132812 30.960938 -4.851562 31.546875 -5.5625 L 31.546875 -11.171875 L 34.109375 -11.171875 L 34.109375 -12 L 21.140625 -12 L 21.140625 -11.171875 L 23.703125 -11.171875 L 23.703125 -6.671875 C 23.703125 -5.804688 23.570312 -4.984375 23.3125 -4.203125 C 23.0625 -3.429688 22.6875 -2.753906 22.1875 -2.171875 C 21.6875 -1.597656 21.0625 -1.140625 20.3125 -0.796875 C 19.570312 -0.460938 18.703125 -0.296875 17.703125 -0.296875 C 16.285156 -0.296875 15.066406 -0.523438 14.046875 -0.984375 C 13.035156 -1.453125 12.207031 -2.21875 11.5625 -3.28125 C 10.914062 -4.351562 10.4375 -5.75 10.125 -7.46875 C 9.820312 -9.195312 9.671875 -11.316406 9.671875 -13.828125 L 9.671875 -18.671875 C 9.671875 -21.191406 9.863281 -23.320312 10.25 -25.0625 C 10.644531 -26.800781 11.1875 -28.207031 11.875 -29.28125 C 12.570312 -30.363281 13.394531 -31.144531 14.34375 -31.625 C 15.289062 -32.113281 16.332031 -32.359375 17.46875 -32.359375 C 19.007812 -32.359375 20.34375 -32.1875 21.46875 -31.84375 C 22.601562 -31.507812 23.597656 -31.007812 24.453125 -30.34375 C 25.304688 -29.6875 26.023438 -28.875 26.609375 -27.90625 C 27.191406 -26.945312 27.707031 -25.835938 28.15625 -24.578125 C 28.21875 -24.410156 28.289062 -24.265625 28.375 -24.140625 C 28.457031 -24.015625 28.5625 -23.953125 28.6875 -23.953125 C 28.84375 -23.953125 28.921875 -24.144531 28.921875 -24.53125 L 28.921875 -32.453125 C 28.921875 -32.847656 28.8125 -33.046875 28.59375 -33.046875 Z M 28.59375 -33.046875 "/></g></g></g><g fill="#ff00ff" fill-opacity="1"><g transform="translate(367.252683, 122.41373)"><g><path d="M 19.34375 -10.984375 C 19.664062 -10.984375 19.828125 -11.273438 19.828125 -11.859375 L 19.828125 -22.390625 C 19.828125 -22.972656 19.664062 -23.265625 19.34375 -23.265625 C 19.0625 -23.265625 18.898438 -22.972656 18.859375 -22.390625 C 18.703125 -20.785156 18.289062 -19.570312 17.625 -18.75 C 16.96875 -17.925781 16.023438 -17.515625 14.796875 -17.515625 L 11.859375 -17.515625 L 11.859375 -31.875 L 15.578125 -31.875 C 16.835938 -31.875 17.941406 -31.648438 18.890625 -31.203125 C 19.835938 -30.753906 20.640625 -30.164062 21.296875 -29.4375 C 21.960938 -28.707031 22.460938 -27.890625 22.796875 -26.984375 C 23.140625 -26.085938 23.34375 -25.1875 23.40625 -24.28125 C 23.40625 -23.863281 23.566406 -23.65625 23.890625 -23.65625 C 24.210938 -23.65625 24.375 -23.863281 24.375 -24.28125 L 24 -31.296875 C 23.96875 -31.816406 23.820312 -32.171875 23.5625 -32.359375 C 23.300781 -32.554688 22.929688 -32.65625 22.453125 -32.65625 L 1.453125 -32.65625 L 1.453125 -31.875 L 4.0625 -31.875 L 4.0625 -0.78125 L 1.453125 -0.78125 L 1.453125 0 L 24.421875 0 C 24.941406 0 25.289062 -0.128906 25.46875 -0.390625 C 25.644531 -0.648438 25.734375 -1.003906 25.734375 -1.453125 L 25.734375 -9.390625 C 25.734375 -9.898438 25.570312 -10.15625 25.25 -10.15625 C 24.925781 -10.15625 24.71875 -9.898438 24.625 -9.390625 C 24.363281 -8.191406 24.085938 -7.066406 23.796875 -6.015625 C 23.503906 -4.972656 23.066406 -4.0625 22.484375 -3.28125 C 21.910156 -2.507812 21.144531 -1.898438 20.1875 -1.453125 C 19.238281 -1.003906 17.992188 -0.78125 16.453125 -0.78125 L 11.859375 -0.78125 L 11.859375 -16.734375 L 14.796875 -16.734375 C 16.023438 -16.734375 16.96875 -16.328125 17.625 -15.515625 C 18.289062 -14.710938 18.703125 -13.492188 18.859375 -11.859375 C 18.898438 -11.273438 19.0625 -10.984375 19.34375 -10.984375 Z M 19.34375 -10.984375 "/></g></g></g><g fill="#00ffff" fill-opacity="1"><g transform="translate(32.311224, 122.41373)"><g><path d="M 24.625 -30.53125 C 23.882812 -31.269531 22.925781 -31.90625 21.75 -32.4375 C 20.570312 -32.96875 19.0625 -33.234375 17.21875 -33.234375 C 14.507812 -33.234375 12.144531 -32.75 10.125 -31.78125 C 8.113281 -30.8125 6.4375 -29.535156 5.09375 -27.953125 C 3.757812 -26.378906 2.753906 -24.578125 2.078125 -22.546875 C 1.398438 -20.515625 1.0625 -18.429688 1.0625 -16.296875 C 1.0625 -14.171875 1.398438 -12.097656 2.078125 -10.078125 C 2.753906 -8.066406 3.757812 -6.269531 5.09375 -4.6875 C 6.4375 -3.113281 8.113281 -1.84375 10.125 -0.875 C 12.144531 0.09375 14.492188 0.578125 17.171875 0.578125 C 18.398438 0.578125 19.488281 0.441406 20.4375 0.171875 C 21.382812 -0.0976562 22.207031 -0.425781 22.90625 -0.8125 C 23.601562 -1.207031 24.175781 -1.613281 24.625 -2.03125 C 25.070312 -2.445312 25.410156 -2.800781 25.640625 -3.09375 L 27.578125 -0.34375 C 27.796875 -0.0195312 27.988281 0.140625 28.15625 0.140625 C 28.3125 0.140625 28.390625 -0.0351562 28.390625 -0.390625 L 28.390625 -11.421875 C 28.390625 -11.835938 28.265625 -12.046875 28.015625 -12.046875 C 27.785156 -12.046875 27.625 -11.835938 27.53125 -11.421875 C 27.425781 -10.898438 27.273438 -10.257812 27.078125 -9.5 C 26.890625 -8.75 26.632812 -7.960938 26.3125 -7.140625 C 25.988281 -6.316406 25.578125 -5.492188 25.078125 -4.671875 C 24.578125 -3.847656 23.957031 -3.113281 23.21875 -2.46875 C 22.476562 -1.820312 21.613281 -1.296875 20.625 -0.890625 C 19.644531 -0.492188 18.492188 -0.296875 17.171875 -0.296875 C 15.984375 -0.296875 14.957031 -0.472656 14.09375 -0.828125 C 13.238281 -1.179688 12.53125 -1.847656 11.96875 -2.828125 C 11.40625 -3.816406 10.992188 -5.195312 10.734375 -6.96875 C 10.484375 -8.738281 10.359375 -11.046875 10.359375 -13.890625 L 10.359375 -18.71875 C 10.359375 -21.59375 10.453125 -23.921875 10.640625 -25.703125 C 10.835938 -27.492188 11.191406 -28.878906 11.703125 -29.859375 C 12.222656 -30.847656 12.945312 -31.507812 13.875 -31.84375 C 14.8125 -32.1875 16.039062 -32.359375 17.5625 -32.359375 C 18.75 -32.359375 19.8125 -32.15625 20.75 -31.75 C 21.6875 -31.351562 22.53125 -30.765625 23.28125 -29.984375 C 24.039062 -29.210938 24.710938 -28.28125 25.296875 -27.1875 C 25.878906 -26.09375 26.410156 -24.851562 26.890625 -23.46875 C 26.992188 -23.144531 27.171875 -22.984375 27.421875 -22.984375 C 27.648438 -22.984375 27.765625 -23.144531 27.765625 -23.46875 L 27.765625 -32.03125 C 27.765625 -32.539062 27.570312 -32.796875 27.1875 -32.796875 C 26.925781 -32.796875 26.6875 -32.648438 26.46875 -32.359375 Z M 24.625 -30.53125 "/></g></g></g><g fill="#00ffff" fill-opacity="1"><g transform="translate(73.722341, 122.41373)"><g><path d="M 14.84375 -32.65625 L 1.84375 -32.65625 L 1.84375 -31.875 L 4.453125 -31.875 L 4.453125 -0.78125 L 1.84375 -0.78125 L 1.84375 0 L 14.84375 0 L 14.84375 -0.78125 L 12.234375 -0.78125 L 12.234375 -16.890625 L 21.375 -16.890625 L 21.375 -0.78125 L 18.765625 -0.78125 L 18.765625 0 L 31.78125 0 L 31.78125 -0.78125 L 29.171875 -0.78125 L 29.171875 -31.921875 L 31.78125 -31.921875 L 31.78125 -32.703125 L 18.765625 -32.703125 L 18.765625 -31.921875 L 21.375 -31.921875 L 21.375 -17.953125 L 12.234375 -17.953125 L 12.234375 -31.875 L 14.84375 -31.875 Z M 14.84375 -32.65625 "/></g></g></g><g fill="#00ffff" fill-opacity="1"><g transform="translate(118.229583, 122.41373)"><g><path d="M 15.09375 -32.9375 L 5.328125 -3.296875 C 5.097656 -2.617188 4.679688 -2.03125 4.078125 -1.53125 C 3.484375 -1.03125 2.671875 -0.78125 1.640625 -0.78125 L 1.640625 0 L 8.953125 0 L 8.953125 -0.78125 C 8.367188 -0.78125 7.898438 -0.832031 7.546875 -0.9375 C 7.191406 -1.050781 6.914062 -1.195312 6.71875 -1.375 C 6.53125 -1.550781 6.398438 -1.742188 6.328125 -1.953125 C 6.265625 -2.171875 6.234375 -2.359375 6.234375 -2.515625 C 6.234375 -2.710938 6.238281 -2.878906 6.25 -3.015625 C 6.269531 -3.160156 6.332031 -3.363281 6.4375 -3.625 L 8.46875 -10.109375 L 18.1875 -10.109375 L 21.28125 -0.78125 L 18.671875 -0.78125 L 18.671875 0 L 31.6875 0 L 31.6875 -0.78125 L 29.078125 -0.78125 L 18.4375 -32.9375 Z M 13.296875 -24.859375 L 17.90625 -10.890625 L 8.75 -10.890625 Z M 13.296875 -24.859375 "/></g></g></g><g fill="#00ffff" fill-opacity="1"><g transform="translate(162.20468, 122.41373)"><g><path d="M 1.984375 -0.78125 L 1.984375 0 L 25.828125 0 L 25.828125 -9.390625 C 25.828125 -9.898438 25.648438 -10.15625 25.296875 -10.15625 C 25.035156 -10.15625 24.875 -9.976562 24.8125 -9.625 C 24.65625 -8.394531 24.40625 -7.25 24.0625 -6.1875 C 23.726562 -5.125 23.273438 -4.195312 22.703125 -3.40625 C 22.140625 -2.613281 21.460938 -1.992188 20.671875 -1.546875 C 19.890625 -1.097656 18.96875 -0.875 17.90625 -0.875 L 12.390625 -0.875 L 12.390625 -31.875 L 15 -31.875 L 15 -32.65625 L 1.984375 -32.65625 L 1.984375 -31.875 L 4.59375 -31.875 L 4.59375 -0.78125 Z M 1.984375 -0.78125 "/></g></g></g><g fill="#00ffff" fill-opacity="1"><g transform="translate(201.051818, 122.41373)"><g><path d="M 1.984375 -0.78125 L 1.984375 0 L 25.828125 0 L 25.828125 -9.390625 C 25.828125 -9.898438 25.648438 -10.15625 25.296875 -10.15625 C 25.035156 -10.15625 24.875 -9.976562 24.8125 -9.625 C 24.65625 -8.394531 24.40625 -7.25 24.0625 -6.1875 C 23.726562 -5.125 23.273438 -4.195312 22.703125 -3.40625 C 22.140625 -2.613281 21.460938 -1.992188 20.671875 -1.546875 C 19.890625 -1.097656 18.96875 -0.875 17.90625 -0.875 L 12.390625 -0.875 L 12.390625 -31.875 L 15 -31.875 L 15 -32.65625 L 1.984375 -32.65625 L 1.984375 -31.875 L 4.59375 -31.875 L 4.59375 -0.78125 Z M 1.984375 -0.78125 "/></g></g></g><g fill="#00ffff" fill-opacity="1"><g transform="translate(239.898943, 122.41373)"><g><path d="M 19.34375 -10.984375 C 19.664062 -10.984375 19.828125 -11.273438 19.828125 -11.859375 L 19.828125 -22.390625 C 19.828125 -22.972656 19.664062 -23.265625 19.34375 -23.265625 C 19.0625 -23.265625 18.898438 -22.972656 18.859375 -22.390625 C 18.703125 -20.785156 18.289062 -19.570312 17.625 -18.75 C 16.96875 -17.925781 16.023438 -17.515625 14.796875 -17.515625 L 11.859375 -17.515625 L 11.859375 -31.875 L 15.578125 -31.875 C 16.835938 -31.875 17.941406 -31.648438 18.890625 -31.203125 C 19.835938 -30.753906 20.640625 -30.164062 21.296875 -29.4375 C 21.960938 -28.707031 22.460938 -27.890625 22.796875 -26.984375 C 23.140625 -26.085938 23.34375 -25.1875 23.40625 -24.28125 C 23.40625 -23.863281 23.566406 -23.65625 23.890625 -23.65625 C 24.210938 -23.65625 24.375 -23.863281 24.375 -24.28125 L 24 -31.296875 C 23.96875 -31.816406 23.820312 -32.171875 23.5625 -32.359375 C 23.300781 -32.554688 22.929688 -32.65625 22.453125 -32.65625 L 1.453125 -32.65625 L 1.453125 -31.875 L 4.0625 -31.875 L 4.0625 -0.78125 L 1.453125 -0.78125 L 1.453125 0 L 24.421875 0 C 24.941406 0 25.289062 -0.128906 25.46875 -0.390625 C 25.644531 -0.648438 25.734375 -1.003906 25.734375 -1.453125 L 25.734375 -9.390625 C 25.734375 -9.898438 25.570312 -10.15625 25.25 -10.15625 C 24.925781 -10.15625 24.71875 -9.898438 24.625 -9.390625 C 24.363281 -8.191406 24.085938 -7.066406 23.796875 -6.015625 C 23.503906 -4.972656 23.066406 -4.0625 22.484375 -3.28125 C 21.910156 -2.507812 21.144531 -1.898438 20.1875 -1.453125 C 19.238281 -1.003906 17.992188 -0.78125 16.453125 -0.78125 L 11.859375 -0.78125 L 11.859375 -16.734375 L 14.796875 -16.734375 C 16.023438 -16.734375 16.96875 -16.328125 17.625 -15.515625 C 18.289062 -14.710938 18.703125 -13.492188 18.859375 -11.859375 C 18.898438 -11.273438 19.0625 -10.984375 19.34375 -10.984375 Z M 19.34375 -10.984375 "/></g></g></g><g fill="#00ffff" fill-opacity="1"><g transform="translate(278.55257, 122.41373)"><g><path d="M 22.296875 -31.875 C 22.972656 -31.875 23.578125 -31.664062 24.109375 -31.25 C 24.640625 -30.832031 24.90625 -30.203125 24.90625 -29.359375 L 24.90625 -12.53125 L 10.984375 -32.65625 L 1.546875 -32.65625 L 1.546875 -31.4375 L 4.59375 -27.71875 L 4.59375 -3.296875 C 4.59375 -2.453125 4.328125 -1.820312 3.796875 -1.40625 C 3.265625 -0.988281 2.660156 -0.78125 1.984375 -0.78125 L 1.984375 0 L 8.03125 0 L 8.03125 -0.78125 C 7.382812 -0.78125 6.785156 -0.988281 6.234375 -1.40625 C 5.691406 -1.820312 5.421875 -2.453125 5.421875 -3.296875 L 5.421875 -26.5625 L 24.09375 0.390625 L 25.734375 0.390625 L 25.734375 -29.453125 C 25.734375 -30.265625 26.003906 -30.867188 26.546875 -31.265625 C 27.097656 -31.671875 27.695312 -31.875 28.34375 -31.875 L 28.34375 -32.65625 L 22.296875 -32.65625 Z M 22.296875 -31.875 "/></g></g></g><g fill="#00ffff" fill-opacity="1"><g transform="translate(319.238031, 122.41373)"><g><path d="M 28.59375 -33.046875 C 28.425781 -33.046875 28.234375 -32.929688 28.015625 -32.703125 L 26.171875 -30.8125 C 25.878906 -31.039062 25.503906 -31.289062 25.046875 -31.5625 C 24.597656 -31.832031 24.023438 -32.085938 23.328125 -32.328125 C 22.640625 -32.578125 21.820312 -32.789062 20.875 -32.96875 C 19.925781 -33.144531 18.789062 -33.234375 17.46875 -33.234375 C 14.757812 -33.234375 12.378906 -32.738281 10.328125 -31.75 C 8.273438 -30.769531 6.5625 -29.484375 5.1875 -27.890625 C 3.820312 -26.296875 2.789062 -24.476562 2.09375 -22.4375 C 1.40625 -20.40625 1.0625 -18.34375 1.0625 -16.25 C 1.0625 -14.15625 1.40625 -12.097656 2.09375 -10.078125 C 2.789062 -8.066406 3.832031 -6.269531 5.21875 -4.6875 C 6.601562 -3.113281 8.335938 -1.84375 10.421875 -0.875 C 12.503906 0.09375 14.929688 0.578125 17.703125 0.578125 C 19.472656 0.578125 21.082031 0.390625 22.53125 0.015625 C 23.988281 -0.347656 25.289062 -0.828125 26.4375 -1.421875 C 27.582031 -2.023438 28.570312 -2.6875 29.40625 -3.40625 C 30.25 -4.132812 30.960938 -4.851562 31.546875 -5.5625 L 31.546875 -11.171875 L 34.109375 -11.171875 L 34.109375 -12 L 21.140625 -12 L 21.140625 -11.171875 L 23.703125 -11.171875 L 23.703125 -6.671875 C 23.703125 -5.804688 23.570312 -4.984375 23.3125 -4.203125 C 23.0625 -3.429688 22.6875 -2.753906 22.1875 -2.171875 C 21.6875 -1.597656 21.0625 -1.140625 20.3125 -0.796875 C 19.570312 -0.460938 18.703125 -0.296875 17.703125 -0.296875 C 16.285156 -0.296875 15.066406 -0.523438 14.046875 -0.984375 C 13.035156 -1.453125 12.207031 -2.21875 11.5625 -3.28125 C 10.914062 -4.351562 10.4375 -5.75 10.125 -7.46875 C 9.820312 -9.195312 9.671875 -11.316406 9.671875 -13.828125 L 9.671875 -18.671875 C 9.671875 -21.191406 9.863281 -23.320312 10.25 -25.0625 C 10.644531 -26.800781 11.1875 -28.207031 11.875 -29.28125 C 12.570312 -30.363281 13.394531 -31.144531 14.34375 -31.625 C 15.289062 -32.113281 16.332031 -32.359375 17.46875 -32.359375 C 19.007812 -32.359375 20.34375 -32.1875 21.46875 -31.84375 C 22.601562 -31.507812 23.597656 -31.007812 24.453125 -30.34375 C 25.304688 -29.6875 26.023438 -28.875 26.609375 -27.90625 C 27.191406 -26.945312 27.707031 -25.835938 28.15625 -24.578125 C 28.21875 -24.410156 28.289062 -24.265625 28.375 -24.140625 C 28.457031 -24.015625 28.5625 -23.953125 28.6875 -23.953125 C 28.84375 -23.953125 28.921875 -24.144531 28.921875 -24.53125 L 28.921875 -32.453125 C 28.921875 -32.847656 28.8125 -33.046875 28.59375 -33.046875 Z M 28.59375 -33.046875 "/></g></g></g><g fill="#00ffff" fill-opacity="1"><g transform="translate(365.438472, 122.41373)"><g><path d="M 19.34375 -10.984375 C 19.664062 -10.984375 19.828125 -11.273438 19.828125 -11.859375 L 19.828125 -22.390625 C 19.828125 -22.972656 19.664062 -23.265625 19.34375 -23.265625 C 19.0625 -23.265625 18.898438 -22.972656 18.859375 -22.390625 C 18.703125 -20.785156 18.289062 -19.570312 17.625 -18.75 C 16.96875 -17.925781 16.023438 -17.515625 14.796875 -17.515625 L 11.859375 -17.515625 L 11.859375 -31.875 L 15.578125 -31.875 C 16.835938 -31.875 17.941406 -31.648438 18.890625 -31.203125 C 19.835938 -30.753906 20.640625 -30.164062 21.296875 -29.4375 C 21.960938 -28.707031 22.460938 -27.890625 22.796875 -26.984375 C 23.140625 -26.085938 23.34375 -25.1875 23.40625 -24.28125 C 23.40625 -23.863281 23.566406 -23.65625 23.890625 -23.65625 C 24.210938 -23.65625 24.375 -23.863281 24.375 -24.28125 L 24 -31.296875 C 23.96875 -31.816406 23.820312 -32.171875 23.5625 -32.359375 C 23.300781 -32.554688 22.929688 -32.65625 22.453125 -32.65625 L 1.453125 -32.65625 L 1.453125 -31.875 L 4.0625 -31.875 L 4.0625 -0.78125 L 1.453125 -0.78125 L 1.453125 0 L 24.421875 0 C 24.941406 0 25.289062 -0.128906 25.46875 -0.390625 C 25.644531 -0.648438 25.734375 -1.003906 25.734375 -1.453125 L 25.734375 -9.390625 C 25.734375 -9.898438 25.570312 -10.15625 25.25 -10.15625 C 24.925781 -10.15625 24.71875 -9.898438 24.625 -9.390625 C 24.363281 -8.191406 24.085938 -7.066406 23.796875 -6.015625 C 23.503906 -4.972656 23.066406 -4.0625 22.484375 -3.28125 C 21.910156 -2.507812 21.144531 -1.898438 20.1875 -1.453125 C 19.238281 -1.003906 17.992188 -0.78125 16.453125 -0.78125 L 11.859375 -0.78125 L 11.859375 -16.734375 L 14.796875 -16.734375 C 16.023438 -16.734375 16.96875 -16.328125 17.625 -15.515625 C 18.289062 -14.710938 18.703125 -13.492188 18.859375 -11.859375 C 18.898438 -11.273438 19.0625 -10.984375 19.34375 -10.984375 Z M 19.34375 -10.984375 "/></g></g></g><g fill="#040264" fill-opacity="1"><g transform="translate(33.218329, 122.41373)"><g><path d="M 24.625 -30.53125 C 23.882812 -31.269531 22.925781 -31.90625 21.75 -32.4375 C 20.570312 -32.96875 19.0625 -33.234375 17.21875 -33.234375 C 14.507812 -33.234375 12.144531 -32.75 10.125 -31.78125 C 8.113281 -30.8125 6.4375 -29.535156 5.09375 -27.953125 C 3.757812 -26.378906 2.753906 -24.578125 2.078125 -22.546875 C 1.398438 -20.515625 1.0625 -18.429688 1.0625 -16.296875 C 1.0625 -14.171875 1.398438 -12.097656 2.078125 -10.078125 C 2.753906 -8.066406 3.757812 -6.269531 5.09375 -4.6875 C 6.4375 -3.113281 8.113281 -1.84375 10.125 -0.875 C 12.144531 0.09375 14.492188 0.578125 17.171875 0.578125 C 18.398438 0.578125 19.488281 0.441406 20.4375 0.171875 C 21.382812 -0.0976562 22.207031 -0.425781 22.90625 -0.8125 C 23.601562 -1.207031 24.175781 -1.613281 24.625 -2.03125 C 25.070312 -2.445312 25.410156 -2.800781 25.640625 -3.09375 L 27.578125 -0.34375 C 27.796875 -0.0195312 27.988281 0.140625 28.15625 0.140625 C 28.3125 0.140625 28.390625 -0.0351562 28.390625 -0.390625 L 28.390625 -11.421875 C 28.390625 -11.835938 28.265625 -12.046875 28.015625 -12.046875 C 27.785156 -12.046875 27.625 -11.835938 27.53125 -11.421875 C 27.425781 -10.898438 27.273438 -10.257812 27.078125 -9.5 C 26.890625 -8.75 26.632812 -7.960938 26.3125 -7.140625 C 25.988281 -6.316406 25.578125 -5.492188 25.078125 -4.671875 C 24.578125 -3.847656 23.957031 -3.113281 23.21875 -2.46875 C 22.476562 -1.820312 21.613281 -1.296875 20.625 -0.890625 C 19.644531 -0.492188 18.492188 -0.296875 17.171875 -0.296875 C 15.984375 -0.296875 14.957031 -0.472656 14.09375 -0.828125 C 13.238281 -1.179688 12.53125 -1.847656 11.96875 -2.828125 C 11.40625 -3.816406 10.992188 -5.195312 10.734375 -6.96875 C 10.484375 -8.738281 10.359375 -11.046875 10.359375 -13.890625 L 10.359375 -18.71875 C 10.359375 -21.59375 10.453125 -23.921875 10.640625 -25.703125 C 10.835938 -27.492188 11.191406 -28.878906 11.703125 -29.859375 C 12.222656 -30.847656 12.945312 -31.507812 13.875 -31.84375 C 14.8125 -32.1875 16.039062 -32.359375 17.5625 -32.359375 C 18.75 -32.359375 19.8125 -32.15625 20.75 -31.75 C 21.6875 -31.351562 22.53125 -30.765625 23.28125 -29.984375 C 24.039062 -29.210938 24.710938 -28.28125 25.296875 -27.1875 C 25.878906 -26.09375 26.410156 -24.851562 26.890625 -23.46875 C 26.992188 -23.144531 27.171875 -22.984375 27.421875 -22.984375 C 27.648438 -22.984375 27.765625 -23.144531 27.765625 -23.46875 L 27.765625 -32.03125 C 27.765625 -32.539062 27.570312 -32.796875 27.1875 -32.796875 C 26.925781 -32.796875 26.6875 -32.648438 26.46875 -32.359375 Z M 24.625 -30.53125 "/></g></g></g><g fill="#040264" fill-opacity="1"><g transform="translate(74.629447, 122.41373)"><g><path d="M 14.84375 -32.65625 L 1.84375 -32.65625 L 1.84375 -31.875 L 4.453125 -31.875 L 4.453125 -0.78125 L 1.84375 -0.78125 L 1.84375 0 L 14.84375 0 L 14.84375 -0.78125 L 12.234375 -0.78125 L 12.234375 -16.890625 L 21.375 -16.890625 L 21.375 -0.78125 L 18.765625 -0.78125 L 18.765625 0 L 31.78125 0 L 31.78125 -0.78125 L 29.171875 -0.78125 L 29.171875 -31.921875 L 31.78125 -31.921875 L 31.78125 -32.703125 L 18.765625 -32.703125 L 18.765625 -31.921875 L 21.375 -31.921875 L 21.375 -17.953125 L 12.234375 -17.953125 L 12.234375 -31.875 L 14.84375 -31.875 Z M 14.84375 -32.65625 "/></g></g></g><g fill="#040264" fill-opacity="1"><g transform="translate(119.136689, 122.41373)"><g><path d="M 15.09375 -32.9375 L 5.328125 -3.296875 C 5.097656 -2.617188 4.679688 -2.03125 4.078125 -1.53125 C 3.484375 -1.03125 2.671875 -0.78125 1.640625 -0.78125 L 1.640625 0 L 8.953125 0 L 8.953125 -0.78125 C 8.367188 -0.78125 7.898438 -0.832031 7.546875 -0.9375 C 7.191406 -1.050781 6.914062 -1.195312 6.71875 -1.375 C 6.53125 -1.550781 6.398438 -1.742188 6.328125 -1.953125 C 6.265625 -2.171875 6.234375 -2.359375 6.234375 -2.515625 C 6.234375 -2.710938 6.238281 -2.878906 6.25 -3.015625 C 6.269531 -3.160156 6.332031 -3.363281 6.4375 -3.625 L 8.46875 -10.109375 L 18.1875 -10.109375 L 21.28125 -0.78125 L 18.671875 -0.78125 L 18.671875 0 L 31.6875 0 L 31.6875 -0.78125 L 29.078125 -0.78125 L 18.4375 -32.9375 Z M 13.296875 -24.859375 L 17.90625 -10.890625 L 8.75 -10.890625 Z M 13.296875 -24.859375 "/></g></g></g><g fill="#040264" fill-opacity="1"><g transform="translate(163.111786, 122.41373)"><g><path d="M 1.984375 -0.78125 L 1.984375 0 L 25.828125 0 L 25.828125 -9.390625 C 25.828125 -9.898438 25.648438 -10.15625 25.296875 -10.15625 C 25.035156 -10.15625 24.875 -9.976562 24.8125 -9.625 C 24.65625 -8.394531 24.40625 -7.25 24.0625 -6.1875 C 23.726562 -5.125 23.273438 -4.195312 22.703125 -3.40625 C 22.140625 -2.613281 21.460938 -1.992188 20.671875 -1.546875 C 19.890625 -1.097656 18.96875 -0.875 17.90625 -0.875 L 12.390625 -0.875 L 12.390625 -31.875 L 15 -31.875 L 15 -32.65625 L 1.984375 -32.65625 L 1.984375 -31.875 L 4.59375 -31.875 L 4.59375 -0.78125 Z M 1.984375 -0.78125 "/></g></g></g><g fill="#040264" fill-opacity="1"><g transform="translate(201.958923, 122.41373)"><g><path d="M 1.984375 -0.78125 L 1.984375 0 L 25.828125 0 L 25.828125 -9.390625 C 25.828125 -9.898438 25.648438 -10.15625 25.296875 -10.15625 C 25.035156 -10.15625 24.875 -9.976562 24.8125 -9.625 C 24.65625 -8.394531 24.40625 -7.25 24.0625 -6.1875 C 23.726562 -5.125 23.273438 -4.195312 22.703125 -3.40625 C 22.140625 -2.613281 21.460938 -1.992188 20.671875 -1.546875 C 19.890625 -1.097656 18.96875 -0.875 17.90625 -0.875 L 12.390625 -0.875 L 12.390625 -31.875 L 15 -31.875 L 15 -32.65625 L 1.984375 -32.65625 L 1.984375 -31.875 L 4.59375 -31.875 L 4.59375 -0.78125 Z M 1.984375 -0.78125 "/></g></g></g><g fill="#040264" fill-opacity="1"><g transform="translate(240.806049, 122.41373)"><g><path d="M 19.34375 -10.984375 C 19.664062 -10.984375 19.828125 -11.273438 19.828125 -11.859375 L 19.828125 -22.390625 C 19.828125 -22.972656 19.664062 -23.265625 19.34375 -23.265625 C 19.0625 -23.265625 18.898438 -22.972656 18.859375 -22.390625 C 18.703125 -20.785156 18.289062 -19.570312 17.625 -18.75 C 16.96875 -17.925781 16.023438 -17.515625 14.796875 -17.515625 L 11.859375 -17.515625 L 11.859375 -31.875 L 15.578125 -31.875 C 16.835938 -31.875 17.941406 -31.648438 18.890625 -31.203125 C 19.835938 -30.753906 20.640625 -30.164062 21.296875 -29.4375 C 21.960938 -28.707031 22.460938 -27.890625 22.796875 -26.984375 C 23.140625 -26.085938 23.34375 -25.1875 23.40625 -24.28125 C 23.40625 -23.863281 23.566406 -23.65625 23.890625 -23.65625 C 24.210938 -23.65625 24.375 -23.863281 24.375 -24.28125 L 24 -31.296875 C 23.96875 -31.816406 23.820312 -32.171875 23.5625 -32.359375 C 23.300781 -32.554688 22.929688 -32.65625 22.453125 -32.65625 L 1.453125 -32.65625 L 1.453125 -31.875 L 4.0625 -31.875 L 4.0625 -0.78125 L 1.453125 -0.78125 L 1.453125 0 L 24.421875 0 C 24.941406 0 25.289062 -0.128906 25.46875 -0.390625 C 25.644531 -0.648438 25.734375 -1.003906 25.734375 -1.453125 L 25.734375 -9.390625 C 25.734375 -9.898438 25.570312 -10.15625 25.25 -10.15625 C 24.925781 -10.15625 24.71875 -9.898438 24.625 -9.390625 C 24.363281 -8.191406 24.085938 -7.066406 23.796875 -6.015625 C 23.503906 -4.972656 23.066406 -4.0625 22.484375 -3.28125 C 21.910156 -2.507812 21.144531 -1.898438 20.1875 -1.453125 C 19.238281 -1.003906 17.992188 -0.78125 16.453125 -0.78125 L 11.859375 -0.78125 L 11.859375 -16.734375 L 14.796875 -16.734375 C 16.023438 -16.734375 16.96875 -16.328125 17.625 -15.515625 C 18.289062 -14.710938 18.703125 -13.492188 18.859375 -11.859375 C 18.898438 -11.273438 19.0625 -10.984375 19.34375 -10.984375 Z M 19.34375 -10.984375 "/></g></g></g><g fill="#040264" fill-opacity="1"><g transform="translate(279.459676, 122.41373)"><g><path d="M 22.296875 -31.875 C 22.972656 -31.875 23.578125 -31.664062 24.109375 -31.25 C 24.640625 -30.832031 24.90625 -30.203125 24.90625 -29.359375 L 24.90625 -12.53125 L 10.984375 -32.65625 L 1.546875 -32.65625 L 1.546875 -31.4375 L 4.59375 -27.71875 L 4.59375 -3.296875 C 4.59375 -2.453125 4.328125 -1.820312 3.796875 -1.40625 C 3.265625 -0.988281 2.660156 -0.78125 1.984375 -0.78125 L 1.984375 0 L 8.03125 0 L 8.03125 -0.78125 C 7.382812 -0.78125 6.785156 -0.988281 6.234375 -1.40625 C 5.691406 -1.820312 5.421875 -2.453125 5.421875 -3.296875 L 5.421875 -26.5625 L 24.09375 0.390625 L 25.734375 0.390625 L 25.734375 -29.453125 C 25.734375 -30.265625 26.003906 -30.867188 26.546875 -31.265625 C 27.097656 -31.671875 27.695312 -31.875 28.34375 -31.875 L 28.34375 -32.65625 L 22.296875 -32.65625 Z M 22.296875 -31.875 "/></g></g></g><g fill="#040264" fill-opacity="1"><g transform="translate(320.145136, 122.41373)"><g><path d="M 28.59375 -33.046875 C 28.425781 -33.046875 28.234375 -32.929688 28.015625 -32.703125 L 26.171875 -30.8125 C 25.878906 -31.039062 25.503906 -31.289062 25.046875 -31.5625 C 24.597656 -31.832031 24.023438 -32.085938 23.328125 -32.328125 C 22.640625 -32.578125 21.820312 -32.789062 20.875 -32.96875 C 19.925781 -33.144531 18.789062 -33.234375 17.46875 -33.234375 C 14.757812 -33.234375 12.378906 -32.738281 10.328125 -31.75 C 8.273438 -30.769531 6.5625 -29.484375 5.1875 -27.890625 C 3.820312 -26.296875 2.789062 -24.476562 2.09375 -22.4375 C 1.40625 -20.40625 1.0625 -18.34375 1.0625 -16.25 C 1.0625 -14.15625 1.40625 -12.097656 2.09375 -10.078125 C 2.789062 -8.066406 3.832031 -6.269531 5.21875 -4.6875 C 6.601562 -3.113281 8.335938 -1.84375 10.421875 -0.875 C 12.503906 0.09375 14.929688 0.578125 17.703125 0.578125 C 19.472656 0.578125 21.082031 0.390625 22.53125 0.015625 C 23.988281 -0.347656 25.289062 -0.828125 26.4375 -1.421875 C 27.582031 -2.023438 28.570312 -2.6875 29.40625 -3.40625 C 30.25 -4.132812 30.960938 -4.851562 31.546875 -5.5625 L 31.546875 -11.171875 L 34.109375 -11.171875 L 34.109375 -12 L 21.140625 -12 L 21.140625 -11.171875 L 23.703125 -11.171875 L 23.703125 -6.671875 C 23.703125 -5.804688 23.570312 -4.984375 23.3125 -4.203125 C 23.0625 -3.429688 22.6875 -2.753906 22.1875 -2.171875 C 21.6875 -1.597656 21.0625 -1.140625 20.3125 -0.796875 C 19.570312 -0.460938 18.703125 -0.296875 17.703125 -0.296875 C 16.285156 -0.296875 15.066406 -0.523438 14.046875 -0.984375 C 13.035156 -1.453125 12.207031 -2.21875 11.5625 -3.28125 C 10.914062 -4.351562 10.4375 -5.75 10.125 -7.46875 C 9.820312 -9.195312 9.671875 -11.316406 9.671875 -13.828125 L 9.671875 -18.671875 C 9.671875 -21.191406 9.863281 -23.320312 10.25 -25.0625 C 10.644531 -26.800781 11.1875 -28.207031 11.875 -29.28125 C 12.570312 -30.363281 13.394531 -31.144531 14.34375 -31.625 C 15.289062 -32.113281 16.332031 -32.359375 17.46875 -32.359375 C 19.007812 -32.359375 20.34375 -32.1875 21.46875 -31.84375 C 22.601562 -31.507812 23.597656 -31.007812 24.453125 -30.34375 C 25.304688 -29.6875 26.023438 -28.875 26.609375 -27.90625 C 27.191406 -26.945312 27.707031 -25.835938 28.15625 -24.578125 C 28.21875 -24.410156 28.289062 -24.265625 28.375 -24.140625 C 28.457031 -24.015625 28.5625 -23.953125 28.6875 -23.953125 C 28.84375 -23.953125 28.921875 -24.144531 28.921875 -24.53125 L 28.921875 -32.453125 C 28.921875 -32.847656 28.8125 -33.046875 28.59375 -33.046875 Z M 28.59375 -33.046875 "/></g></g></g><g fill="#040264" fill-opacity="1"><g transform="translate(366.345577, 122.41373)"><g><path d="M 19.34375 -10.984375 C 19.664062 -10.984375 19.828125 -11.273438 19.828125 -11.859375 L 19.828125 -22.390625 C 19.828125 -22.972656 19.664062 -23.265625 19.34375 -23.265625 C 19.0625 -23.265625 18.898438 -22.972656 18.859375 -22.390625 C 18.703125 -20.785156 18.289062 -19.570312 17.625 -18.75 C 16.96875 -17.925781 16.023438 -17.515625 14.796875 -17.515625 L 11.859375 -17.515625 L 11.859375 -31.875 L 15.578125 -31.875 C 16.835938 -31.875 17.941406 -31.648438 18.890625 -31.203125 C 19.835938 -30.753906 20.640625 -30.164062 21.296875 -29.4375 C 21.960938 -28.707031 22.460938 -27.890625 22.796875 -26.984375 C 23.140625 -26.085938 23.34375 -25.1875 23.40625 -24.28125 C 23.40625 -23.863281 23.566406 -23.65625 23.890625 -23.65625 C 24.210938 -23.65625 24.375 -23.863281 24.375 -24.28125 L 24 -31.296875 C 23.96875 -31.816406 23.820312 -32.171875 23.5625 -32.359375 C 23.300781 -32.554688 22.929688 -32.65625 22.453125 -32.65625 L 1.453125 -32.65625 L 1.453125 -31.875 L 4.0625 -31.875 L 4.0625 -0.78125 L 1.453125 -0.78125 L 1.453125 0 L 24.421875 0 C 24.941406 0 25.289062 -0.128906 25.46875 -0.390625 C 25.644531 -0.648438 25.734375 -1.003906 25.734375 -1.453125 L 25.734375 -9.390625 C 25.734375 -9.898438 25.570312 -10.15625 25.25 -10.15625 C 24.925781 -10.15625 24.71875 -9.898438 24.625 -9.390625 C 24.363281 -8.191406 24.085938 -7.066406 23.796875 -6.015625 C 23.503906 -4.972656 23.066406 -4.0625 22.484375 -3.28125 C 21.910156 -2.507812 21.144531 -1.898438 20.1875 -1.453125 C 19.238281 -1.003906 17.992188 -0.78125 16.453125 -0.78125 L 11.859375 -0.78125 L 11.859375 -16.734375 L 14.796875 -16.734375 C 16.023438 -16.734375 16.96875 -16.328125 17.625 -15.515625 C 18.289062 -14.710938 18.703125 -13.492188 18.859375 -11.859375 C 18.898438 -11.273438 19.0625 -10.984375 19.34375 -10.984375 Z M 19.34375 -10.984375 "/></g></g></g><g fill="#ff00ff" fill-opacity="1"><g transform="translate(23.525293, 245.668656)"><g><path d="M 39.375 -10.1875 C 39.613281 -11.144531 39.851562 -12.15625 40.09375 -13.21875 C 40.332031 -14.28125 40.453125 -15.335938 40.453125 -16.390625 C 40.453125 -18.035156 40.113281 -19.375 39.4375 -20.40625 C 38.757812 -21.4375 37.914062 -22.265625 36.90625 -22.890625 C 35.894531 -23.523438 34.8125 -23.960938 33.65625 -24.203125 C 32.5 -24.441406 31.441406 -24.609375 30.484375 -24.703125 C 32.890625 -24.847656 35.128906 -25.234375 37.203125 -25.859375 C 39.273438 -26.484375 41.054688 -27.347656 42.546875 -28.453125 C 44.035156 -29.566406 45.203125 -30.929688 46.046875 -32.546875 C 46.890625 -34.160156 47.3125 -36.050781 47.3125 -38.21875 C 47.3125 -41.394531 46.144531 -43.910156 43.8125 -45.765625 C 41.476562 -47.617188 38.40625 -48.546875 34.59375 -48.546875 L 12.203125 -48.546875 L 11.921875 -47.390625 L 15.75 -47.390625 L 3.46875 -1.234375 L -0.359375 -1.234375 L -0.796875 0 L 18.640625 0 L 19 -1.234375 L 15.171875 -1.234375 L 21.375 -24.78125 C 22.382812 -24.78125 23.347656 -24.679688 24.265625 -24.484375 C 25.179688 -24.296875 26 -23.984375 26.71875 -23.546875 C 27.445312 -23.109375 28.015625 -22.515625 28.421875 -21.765625 C 28.828125 -21.023438 29.03125 -20.078125 29.03125 -18.921875 C 29.03125 -18.679688 29.003906 -18.34375 28.953125 -17.90625 C 28.910156 -17.476562 28.84375 -17 28.75 -16.46875 C 28.65625 -15.9375 28.546875 -15.378906 28.421875 -14.796875 C 28.304688 -14.222656 28.175781 -13.695312 28.03125 -13.21875 C 27.644531 -11.820312 27.304688 -10.460938 27.015625 -9.140625 C 26.722656 -7.816406 26.578125 -6.578125 26.578125 -5.421875 C 26.578125 -3.347656 27.25 -1.769531 28.59375 -0.6875 C 29.945312 0.394531 31.707031 0.9375 33.875 0.9375 C 36 0.9375 38.179688 0.375 40.421875 -0.75 C 42.660156 -1.882812 44.570312 -3.582031 46.15625 -5.84375 C 46.394531 -6.132812 46.515625 -6.425781 46.515625 -6.71875 C 46.515625 -7.007812 46.394531 -7.15625 46.15625 -7.15625 C 45.863281 -7.15625 45.503906 -6.910156 45.078125 -6.421875 C 43.960938 -5.171875 42.972656 -4.269531 42.109375 -3.71875 C 41.242188 -3.164062 40.5 -2.890625 39.875 -2.890625 C 39.007812 -2.890625 38.515625 -3.128906 38.390625 -3.609375 C 38.273438 -4.085938 38.21875 -4.519531 38.21875 -4.90625 C 38.21875 -5.582031 38.335938 -6.363281 38.578125 -7.25 C 38.816406 -8.144531 39.082031 -9.125 39.375 -10.1875 Z M 25.578125 -25.9375 L 21.671875 -25.9375 L 27.453125 -47.3125 L 30.046875 -47.3125 C 32.066406 -47.3125 33.65625 -46.863281 34.8125 -45.96875 C 35.96875 -45.082031 36.546875 -43.507812 36.546875 -41.25 C 36.546875 -40.476562 36.4375 -39.25 36.21875 -37.5625 C 36.007812 -35.875 35.519531 -34.160156 34.75 -32.421875 C 33.976562 -30.691406 32.867188 -29.175781 31.421875 -27.875 C 29.972656 -26.582031 28.023438 -25.9375 25.578125 -25.9375 Z M 25.578125 -25.9375 "/></g></g></g><g fill="#ff00ff" fill-opacity="1"><g transform="translate(84.770233, 245.668656)"><g><path d="M 43.921875 -34.8125 C 44.253906 -34.8125 44.519531 -35.175781 44.71875 -35.90625 L 47.171875 -45 C 47.316406 -45.53125 47.425781 -45.953125 47.5 -46.265625 C 47.570312 -46.578125 47.609375 -46.878906 47.609375 -47.171875 C 47.609375 -48.085938 47.003906 -48.546875 45.796875 -48.546875 L 13.65625 -48.546875 L 13.359375 -47.390625 L 17.34375 -47.390625 L 4.984375 -1.15625 L 1.078125 -1.15625 L 0.796875 0 L 35.109375 0 C 35.785156 0 36.335938 -0.210938 36.765625 -0.640625 C 37.203125 -1.078125 37.515625 -1.632812 37.703125 -2.3125 L 40.375 -12.5 C 40.570312 -13.269531 40.671875 -13.703125 40.671875 -13.796875 C 40.671875 -14.328125 40.5 -14.59375 40.15625 -14.59375 C 39.675781 -14.59375 39.269531 -14.109375 38.9375 -13.140625 C 38.40625 -11.648438 37.726562 -10.179688 36.90625 -8.734375 C 36.09375 -7.296875 35.128906 -6.019531 34.015625 -4.90625 C 32.910156 -3.800781 31.644531 -2.898438 30.21875 -2.203125 C 28.800781 -1.503906 27.226562 -1.15625 25.5 -1.15625 L 16.609375 -1.15625 L 22.96875 -25 L 28.171875 -25 C 29.472656 -25 30.363281 -24.441406 30.84375 -23.328125 C 31.320312 -22.222656 31.5625 -20.851562 31.5625 -19.21875 C 31.5625 -18.832031 31.550781 -18.429688 31.53125 -18.015625 C 31.507812 -17.609375 31.5 -17.210938 31.5 -16.828125 C 31.5 -16.148438 31.710938 -15.8125 32.140625 -15.8125 C 32.429688 -15.8125 32.648438 -16.078125 32.796875 -16.609375 L 36.6875 -32.28125 C 36.738281 -32.53125 36.765625 -32.675781 36.765625 -32.71875 C 36.765625 -32.769531 36.765625 -32.816406 36.765625 -32.859375 C 36.765625 -33.296875 36.597656 -33.515625 36.265625 -33.515625 C 35.921875 -33.515625 35.65625 -33.296875 35.46875 -32.859375 C 34.601562 -31.078125 33.613281 -29.515625 32.5 -28.171875 C 31.394531 -26.828125 30.070312 -26.15625 28.53125 -26.15625 L 23.328125 -26.15625 L 28.96875 -47.390625 L 35.6875 -47.390625 C 37.175781 -47.390625 38.425781 -47.050781 39.4375 -46.375 C 40.445312 -45.695312 41.253906 -44.863281 41.859375 -43.875 C 42.460938 -42.894531 42.882812 -41.828125 43.125 -40.671875 C 43.363281 -39.515625 43.484375 -38.429688 43.484375 -37.421875 C 43.484375 -37.035156 43.46875 -36.695312 43.4375 -36.40625 C 43.414062 -36.113281 43.40625 -35.875 43.40625 -35.6875 C 43.40625 -35.101562 43.578125 -34.8125 43.921875 -34.8125 Z M 43.921875 -34.8125 "/></g></g></g><g fill="#ff00ff" fill-opacity="1"><g transform="translate(141.826396, 245.668656)"><g><path d="M 38.796875 -49.1875 L 33.734375 -49.1875 L 7.21875 -4.90625 C 6.882812 -4.382812 6.472656 -3.894531 5.984375 -3.4375 C 5.503906 -2.976562 4.953125 -2.554688 4.328125 -2.171875 C 3.941406 -1.929688 3.457031 -1.722656 2.875 -1.546875 C 2.300781 -1.378906 1.820312 -1.269531 1.4375 -1.21875 C 1.050781 -1.175781 0.835938 -1.15625 0.796875 -1.15625 L 0.4375 0 L 11.34375 0 L 11.625 -1.15625 C 11.582031 -1.15625 11.367188 -1.175781 10.984375 -1.21875 C 10.597656 -1.269531 10.140625 -1.378906 9.609375 -1.546875 C 9.078125 -1.722656 8.710938 -2.003906 8.515625 -2.390625 C 8.328125 -2.773438 8.269531 -3.207031 8.34375 -3.6875 C 8.414062 -4.164062 8.570312 -4.597656 8.8125 -4.984375 L 14.65625 -15.09375 L 29.109375 -15.09375 L 30.046875 -1.15625 L 23.546875 -1.15625 L 23.265625 0 L 47.75 0 L 48.109375 -1.15625 L 41.828125 -1.15625 Z M 27.671875 -36.90625 L 29.03125 -16.25 L 15.3125 -16.25 Z M 27.671875 -36.90625 "/></g></g></g><g fill="#ff00ff" fill-opacity="1"><g transform="translate(204.010199, 245.668656)"><g><path d="M -0.578125 0 L 33.8125 0 C 34.476562 0 35.03125 -0.210938 35.46875 -0.640625 C 35.90625 -1.078125 36.21875 -1.632812 36.40625 -2.3125 L 39.078125 -12.5 C 39.273438 -13.269531 39.375 -13.703125 39.375 -13.796875 C 39.375 -14.328125 39.203125 -14.59375 38.859375 -14.59375 C 38.378906 -14.59375 37.972656 -14.109375 37.640625 -13.140625 C 37.109375 -11.648438 36.429688 -10.179688 35.609375 -8.734375 C 34.796875 -7.296875 33.832031 -6.019531 32.71875 -4.90625 C 31.613281 -3.800781 30.347656 -2.898438 28.921875 -2.203125 C 27.503906 -1.503906 25.929688 -1.15625 24.203125 -1.15625 L 15.3125 -1.15625 L 27.734375 -47.390625 L 31.640625 -47.390625 L 31.859375 -48.546875 L 12.421875 -48.546875 L 12.203125 -47.390625 L 16.109375 -47.390625 L 3.6875 -1.15625 L -0.21875 -1.15625 Z M -0.578125 0 "/></g></g></g><g fill="#ff00ff" fill-opacity="1"><g transform="translate(257.238705, 245.668656)"><g><path d="M 34.171875 -47.390625 L 34.453125 -48.546875 L 15.09375 -48.546875 L 14.734375 -47.390625 L 18.640625 -47.390625 L 6.28125 -1.15625 L 2.390625 -1.15625 L 2.09375 0 L 21.8125 0 L 22.109375 -1.15625 L 17.921875 -1.15625 L 30.265625 -47.390625 Z M 34.171875 -47.390625 "/></g></g></g><g fill="#ff00ff" fill-opacity="1"><g transform="translate(299.850836, 245.668656)"><g><path d="M 49.34375 -34.234375 L 51.28125 -45.9375 C 51.332031 -46.132812 51.378906 -46.363281 51.421875 -46.625 C 51.472656 -46.894531 51.5 -47.125 51.5 -47.3125 C 51.5 -48.132812 51.039062 -48.546875 50.125 -48.546875 L 15.3125 -48.546875 C 14.59375 -48.546875 14.078125 -48.421875 13.765625 -48.171875 C 13.453125 -47.929688 13.175781 -47.5 12.9375 -46.875 L 8.671875 -34.75 L 10.1875 -34.75 C 11.875 -38.84375 14.039062 -41.972656 16.6875 -44.140625 C 19.332031 -46.304688 22.171875 -47.390625 25.203125 -47.390625 L 26.515625 -47.390625 L 14.15625 -1.15625 L 10.25 -1.15625 L 9.96875 0 L 29.328125 0 L 29.6875 -1.15625 L 25.78125 -1.15625 L 38.140625 -47.390625 L 41.03125 -47.390625 C 41.84375 -47.390625 42.660156 -47.160156 43.484375 -46.703125 C 44.304688 -46.242188 45.050781 -45.554688 45.71875 -44.640625 C 46.394531 -43.722656 46.9375 -42.585938 47.34375 -41.234375 C 47.757812 -39.890625 47.96875 -38.328125 47.96875 -36.546875 C 47.96875 -36.160156 47.953125 -35.773438 47.921875 -35.390625 C 47.898438 -35.003906 47.863281 -34.617188 47.8125 -34.234375 Z M 49.34375 -34.234375 "/></g></g></g><g fill="#ff00ff" fill-opacity="1"><g transform="translate(357.701423, 245.668656)"><g><path d="M 46.65625 -48.609375 L 46.375 -47.453125 C 48.25 -47.453125 49.1875 -46.875 49.1875 -45.71875 C 49.1875 -45.050781 48.851562 -44.234375 48.1875 -43.265625 L 33.8125 -24.125 L 28.171875 -47.390625 L 32.078125 -47.390625 L 32.359375 -48.546875 L 12.359375 -48.546875 L 12.0625 -47.390625 L 15.890625 -47.390625 L 22.96875 -21.375 L 17.546875 -1.15625 L 13.65625 -1.15625 L 13.359375 0 L 32.796875 0 L 33.078125 -1.15625 L 29.1875 -1.15625 L 35.109375 -23.265625 L 49.984375 -43.046875 C 51.085938 -44.441406 52.289062 -45.523438 53.59375 -46.296875 C 54.894531 -47.066406 56.316406 -47.453125 57.859375 -47.453125 L 58.15625 -48.609375 Z M 46.65625 -48.609375 "/></g></g></g><g fill="#00ffff" fill-opacity="1"><g transform="translate(20.81659, 245.668656)"><g><path d="M 39.375 -10.1875 C 39.613281 -11.144531 39.851562 -12.15625 40.09375 -13.21875 C 40.332031 -14.28125 40.453125 -15.335938 40.453125 -16.390625 C 40.453125 -18.035156 40.113281 -19.375 39.4375 -20.40625 C 38.757812 -21.4375 37.914062 -22.265625 36.90625 -22.890625 C 35.894531 -23.523438 34.8125 -23.960938 33.65625 -24.203125 C 32.5 -24.441406 31.441406 -24.609375 30.484375 -24.703125 C 32.890625 -24.847656 35.128906 -25.234375 37.203125 -25.859375 C 39.273438 -26.484375 41.054688 -27.347656 42.546875 -28.453125 C 44.035156 -29.566406 45.203125 -30.929688 46.046875 -32.546875 C 46.890625 -34.160156 47.3125 -36.050781 47.3125 -38.21875 C 47.3125 -41.394531 46.144531 -43.910156 43.8125 -45.765625 C 41.476562 -47.617188 38.40625 -48.546875 34.59375 -48.546875 L 12.203125 -48.546875 L 11.921875 -47.390625 L 15.75 -47.390625 L 3.46875 -1.234375 L -0.359375 -1.234375 L -0.796875 0 L 18.640625 0 L 19 -1.234375 L 15.171875 -1.234375 L 21.375 -24.78125 C 22.382812 -24.78125 23.347656 -24.679688 24.265625 -24.484375 C 25.179688 -24.296875 26 -23.984375 26.71875 -23.546875 C 27.445312 -23.109375 28.015625 -22.515625 28.421875 -21.765625 C 28.828125 -21.023438 29.03125 -20.078125 29.03125 -18.921875 C 29.03125 -18.679688 29.003906 -18.34375 28.953125 -17.90625 C 28.910156 -17.476562 28.84375 -17 28.75 -16.46875 C 28.65625 -15.9375 28.546875 -15.378906 28.421875 -14.796875 C 28.304688 -14.222656 28.175781 -13.695312 28.03125 -13.21875 C 27.644531 -11.820312 27.304688 -10.460938 27.015625 -9.140625 C 26.722656 -7.816406 26.578125 -6.578125 26.578125 -5.421875 C 26.578125 -3.347656 27.25 -1.769531 28.59375 -0.6875 C 29.945312 0.394531 31.707031 0.9375 33.875 0.9375 C 36 0.9375 38.179688 0.375 40.421875 -0.75 C 42.660156 -1.882812 44.570312 -3.582031 46.15625 -5.84375 C 46.394531 -6.132812 46.515625 -6.425781 46.515625 -6.71875 C 46.515625 -7.007812 46.394531 -7.15625 46.15625 -7.15625 C 45.863281 -7.15625 45.503906 -6.910156 45.078125 -6.421875 C 43.960938 -5.171875 42.972656 -4.269531 42.109375 -3.71875 C 41.242188 -3.164062 40.5 -2.890625 39.875 -2.890625 C 39.007812 -2.890625 38.515625 -3.128906 38.390625 -3.609375 C 38.273438 -4.085938 38.21875 -4.519531 38.21875 -4.90625 C 38.21875 -5.582031 38.335938 -6.363281 38.578125 -7.25 C 38.816406 -8.144531 39.082031 -9.125 39.375 -10.1875 Z M 25.578125 -25.9375 L 21.671875 -25.9375 L 27.453125 -47.3125 L 30.046875 -47.3125 C 32.066406 -47.3125 33.65625 -46.863281 34.8125 -45.96875 C 35.96875 -45.082031 36.546875 -43.507812 36.546875 -41.25 C 36.546875 -40.476562 36.4375 -39.25 36.21875 -37.5625 C 36.007812 -35.875 35.519531 -34.160156 34.75 -32.421875 C 33.976562 -30.691406 32.867188 -29.175781 31.421875 -27.875 C 29.972656 -26.582031 28.023438 -25.9375 25.578125 -25.9375 Z M 25.578125 -25.9375 "/></g></g></g><g fill="#00ffff" fill-opacity="1"><g transform="translate(82.06153, 245.668656)"><g><path d="M 43.921875 -34.8125 C 44.253906 -34.8125 44.519531 -35.175781 44.71875 -35.90625 L 47.171875 -45 C 47.316406 -45.53125 47.425781 -45.953125 47.5 -46.265625 C 47.570312 -46.578125 47.609375 -46.878906 47.609375 -47.171875 C 47.609375 -48.085938 47.003906 -48.546875 45.796875 -48.546875 L 13.65625 -48.546875 L 13.359375 -47.390625 L 17.34375 -47.390625 L 4.984375 -1.15625 L 1.078125 -1.15625 L 0.796875 0 L 35.109375 0 C 35.785156 0 36.335938 -0.210938 36.765625 -0.640625 C 37.203125 -1.078125 37.515625 -1.632812 37.703125 -2.3125 L 40.375 -12.5 C 40.570312 -13.269531 40.671875 -13.703125 40.671875 -13.796875 C 40.671875 -14.328125 40.5 -14.59375 40.15625 -14.59375 C 39.675781 -14.59375 39.269531 -14.109375 38.9375 -13.140625 C 38.40625 -11.648438 37.726562 -10.179688 36.90625 -8.734375 C 36.09375 -7.296875 35.128906 -6.019531 34.015625 -4.90625 C 32.910156 -3.800781 31.644531 -2.898438 30.21875 -2.203125 C 28.800781 -1.503906 27.226562 -1.15625 25.5 -1.15625 L 16.609375 -1.15625 L 22.96875 -25 L 28.171875 -25 C 29.472656 -25 30.363281 -24.441406 30.84375 -23.328125 C 31.320312 -22.222656 31.5625 -20.851562 31.5625 -19.21875 C 31.5625 -18.832031 31.550781 -18.429688 31.53125 -18.015625 C 31.507812 -17.609375 31.5 -17.210938 31.5 -16.828125 C 31.5 -16.148438 31.710938 -15.8125 32.140625 -15.8125 C 32.429688 -15.8125 32.648438 -16.078125 32.796875 -16.609375 L 36.6875 -32.28125 C 36.738281 -32.53125 36.765625 -32.675781 36.765625 -32.71875 C 36.765625 -32.769531 36.765625 -32.816406 36.765625 -32.859375 C 36.765625 -33.296875 36.597656 -33.515625 36.265625 -33.515625 C 35.921875 -33.515625 35.65625 -33.296875 35.46875 -32.859375 C 34.601562 -31.078125 33.613281 -29.515625 32.5 -28.171875 C 31.394531 -26.828125 30.070312 -26.15625 28.53125 -26.15625 L 23.328125 -26.15625 L 28.96875 -47.390625 L 35.6875 -47.390625 C 37.175781 -47.390625 38.425781 -47.050781 39.4375 -46.375 C 40.445312 -45.695312 41.253906 -44.863281 41.859375 -43.875 C 42.460938 -42.894531 42.882812 -41.828125 43.125 -40.671875 C 43.363281 -39.515625 43.484375 -38.429688 43.484375 -37.421875 C 43.484375 -37.035156 43.46875 -36.695312 43.4375 -36.40625 C 43.414062 -36.113281 43.40625 -35.875 43.40625 -35.6875 C 43.40625 -35.101562 43.578125 -34.8125 43.921875 -34.8125 Z M 43.921875 -34.8125 "/></g></g></g><g fill="#00ffff" fill-opacity="1"><g transform="translate(139.117694, 245.668656)"><g><path d="M 38.796875 -49.1875 L 33.734375 -49.1875 L 7.21875 -4.90625 C 6.882812 -4.382812 6.472656 -3.894531 5.984375 -3.4375 C 5.503906 -2.976562 4.953125 -2.554688 4.328125 -2.171875 C 3.941406 -1.929688 3.457031 -1.722656 2.875 -1.546875 C 2.300781 -1.378906 1.820312 -1.269531 1.4375 -1.21875 C 1.050781 -1.175781 0.835938 -1.15625 0.796875 -1.15625 L 0.4375 0 L 11.34375 0 L 11.625 -1.15625 C 11.582031 -1.15625 11.367188 -1.175781 10.984375 -1.21875 C 10.597656 -1.269531 10.140625 -1.378906 9.609375 -1.546875 C 9.078125 -1.722656 8.710938 -2.003906 8.515625 -2.390625 C 8.328125 -2.773438 8.269531 -3.207031 8.34375 -3.6875 C 8.414062 -4.164062 8.570312 -4.597656 8.8125 -4.984375 L 14.65625 -15.09375 L 29.109375 -15.09375 L 30.046875 -1.15625 L 23.546875 -1.15625 L 23.265625 0 L 47.75 0 L 48.109375 -1.15625 L 41.828125 -1.15625 Z M 27.671875 -36.90625 L 29.03125 -16.25 L 15.3125 -16.25 Z M 27.671875 -36.90625 "/></g></g></g><g fill="#00ffff" fill-opacity="1"><g transform="translate(201.301496, 245.668656)"><g><path d="M -0.578125 0 L 33.8125 0 C 34.476562 0 35.03125 -0.210938 35.46875 -0.640625 C 35.90625 -1.078125 36.21875 -1.632812 36.40625 -2.3125 L 39.078125 -12.5 C 39.273438 -13.269531 39.375 -13.703125 39.375 -13.796875 C 39.375 -14.328125 39.203125 -14.59375 38.859375 -14.59375 C 38.378906 -14.59375 37.972656 -14.109375 37.640625 -13.140625 C 37.109375 -11.648438 36.429688 -10.179688 35.609375 -8.734375 C 34.796875 -7.296875 33.832031 -6.019531 32.71875 -4.90625 C 31.613281 -3.800781 30.347656 -2.898438 28.921875 -2.203125 C 27.503906 -1.503906 25.929688 -1.15625 24.203125 -1.15625 L 15.3125 -1.15625 L 27.734375 -47.390625 L 31.640625 -47.390625 L 31.859375 -48.546875 L 12.421875 -48.546875 L 12.203125 -47.390625 L 16.109375 -47.390625 L 3.6875 -1.15625 L -0.21875 -1.15625 Z M -0.578125 0 "/></g></g></g><g fill="#00ffff" fill-opacity="1"><g transform="translate(254.530002, 245.668656)"><g><path d="M 34.171875 -47.390625 L 34.453125 -48.546875 L 15.09375 -48.546875 L 14.734375 -47.390625 L 18.640625 -47.390625 L 6.28125 -1.15625 L 2.390625 -1.15625 L 2.09375 0 L 21.8125 0 L 22.109375 -1.15625 L 17.921875 -1.15625 L 30.265625 -47.390625 Z M 34.171875 -47.390625 "/></g></g></g><g fill="#00ffff" fill-opacity="1"><g transform="translate(297.142134, 245.668656)"><g><path d="M 49.34375 -34.234375 L 51.28125 -45.9375 C 51.332031 -46.132812 51.378906 -46.363281 51.421875 -46.625 C 51.472656 -46.894531 51.5 -47.125 51.5 -47.3125 C 51.5 -48.132812 51.039062 -48.546875 50.125 -48.546875 L 15.3125 -48.546875 C 14.59375 -48.546875 14.078125 -48.421875 13.765625 -48.171875 C 13.453125 -47.929688 13.175781 -47.5 12.9375 -46.875 L 8.671875 -34.75 L 10.1875 -34.75 C 11.875 -38.84375 14.039062 -41.972656 16.6875 -44.140625 C 19.332031 -46.304688 22.171875 -47.390625 25.203125 -47.390625 L 26.515625 -47.390625 L 14.15625 -1.15625 L 10.25 -1.15625 L 9.96875 0 L 29.328125 0 L 29.6875 -1.15625 L 25.78125 -1.15625 L 38.140625 -47.390625 L 41.03125 -47.390625 C 41.84375 -47.390625 42.660156 -47.160156 43.484375 -46.703125 C 44.304688 -46.242188 45.050781 -45.554688 45.71875 -44.640625 C 46.394531 -43.722656 46.9375 -42.585938 47.34375 -41.234375 C 47.757812 -39.890625 47.96875 -38.328125 47.96875 -36.546875 C 47.96875 -36.160156 47.953125 -35.773438 47.921875 -35.390625 C 47.898438 -35.003906 47.863281 -34.617188 47.8125 -34.234375 Z M 49.34375 -34.234375 "/></g></g></g><g fill="#00ffff" fill-opacity="1"><g transform="translate(354.992721, 245.668656)"><g><path d="M 46.65625 -48.609375 L 46.375 -47.453125 C 48.25 -47.453125 49.1875 -46.875 49.1875 -45.71875 C 49.1875 -45.050781 48.851562 -44.234375 48.1875 -43.265625 L 33.8125 -24.125 L 28.171875 -47.390625 L 32.078125 -47.390625 L 32.359375 -48.546875 L 12.359375 -48.546875 L 12.0625 -47.390625 L 15.890625 -47.390625 L 22.96875 -21.375 L 17.546875 -1.15625 L 13.65625 -1.15625 L 13.359375 0 L 32.796875 0 L 33.078125 -1.15625 L 29.1875 -1.15625 L 35.109375 -23.265625 L 49.984375 -43.046875 C 51.085938 -44.441406 52.289062 -45.523438 53.59375 -46.296875 C 54.894531 -47.066406 56.316406 -47.453125 57.859375 -47.453125 L 58.15625 -48.609375 Z M 46.65625 -48.609375 "/></g></g></g><g fill="#040264" fill-opacity="1"><g transform="translate(22.170942, 245.668656)"><g><path d="M 39.375 -10.1875 C 39.613281 -11.144531 39.851562 -12.15625 40.09375 -13.21875 C 40.332031 -14.28125 40.453125 -15.335938 40.453125 -16.390625 C 40.453125 -18.035156 40.113281 -19.375 39.4375 -20.40625 C 38.757812 -21.4375 37.914062 -22.265625 36.90625 -22.890625 C 35.894531 -23.523438 34.8125 -23.960938 33.65625 -24.203125 C 32.5 -24.441406 31.441406 -24.609375 30.484375 -24.703125 C 32.890625 -24.847656 35.128906 -25.234375 37.203125 -25.859375 C 39.273438 -26.484375 41.054688 -27.347656 42.546875 -28.453125 C 44.035156 -29.566406 45.203125 -30.929688 46.046875 -32.546875 C 46.890625 -34.160156 47.3125 -36.050781 47.3125 -38.21875 C 47.3125 -41.394531 46.144531 -43.910156 43.8125 -45.765625 C 41.476562 -47.617188 38.40625 -48.546875 34.59375 -48.546875 L 12.203125 -48.546875 L 11.921875 -47.390625 L 15.75 -47.390625 L 3.46875 -1.234375 L -0.359375 -1.234375 L -0.796875 0 L 18.640625 0 L 19 -1.234375 L 15.171875 -1.234375 L 21.375 -24.78125 C 22.382812 -24.78125 23.347656 -24.679688 24.265625 -24.484375 C 25.179688 -24.296875 26 -23.984375 26.71875 -23.546875 C 27.445312 -23.109375 28.015625 -22.515625 28.421875 -21.765625 C 28.828125 -21.023438 29.03125 -20.078125 29.03125 -18.921875 C 29.03125 -18.679688 29.003906 -18.34375 28.953125 -17.90625 C 28.910156 -17.476562 28.84375 -17 28.75 -16.46875 C 28.65625 -15.9375 28.546875 -15.378906 28.421875 -14.796875 C 28.304688 -14.222656 28.175781 -13.695312 28.03125 -13.21875 C 27.644531 -11.820312 27.304688 -10.460938 27.015625 -9.140625 C 26.722656 -7.816406 26.578125 -6.578125 26.578125 -5.421875 C 26.578125 -3.347656 27.25 -1.769531 28.59375 -0.6875 C 29.945312 0.394531 31.707031 0.9375 33.875 0.9375 C 36 0.9375 38.179688 0.375 40.421875 -0.75 C 42.660156 -1.882812 44.570312 -3.582031 46.15625 -5.84375 C 46.394531 -6.132812 46.515625 -6.425781 46.515625 -6.71875 C 46.515625 -7.007812 46.394531 -7.15625 46.15625 -7.15625 C 45.863281 -7.15625 45.503906 -6.910156 45.078125 -6.421875 C 43.960938 -5.171875 42.972656 -4.269531 42.109375 -3.71875 C 41.242188 -3.164062 40.5 -2.890625 39.875 -2.890625 C 39.007812 -2.890625 38.515625 -3.128906 38.390625 -3.609375 C 38.273438 -4.085938 38.21875 -4.519531 38.21875 -4.90625 C 38.21875 -5.582031 38.335938 -6.363281 38.578125 -7.25 C 38.816406 -8.144531 39.082031 -9.125 39.375 -10.1875 Z M 25.578125 -25.9375 L 21.671875 -25.9375 L 27.453125 -47.3125 L 30.046875 -47.3125 C 32.066406 -47.3125 33.65625 -46.863281 34.8125 -45.96875 C 35.96875 -45.082031 36.546875 -43.507812 36.546875 -41.25 C 36.546875 -40.476562 36.4375 -39.25 36.21875 -37.5625 C 36.007812 -35.875 35.519531 -34.160156 34.75 -32.421875 C 33.976562 -30.691406 32.867188 -29.175781 31.421875 -27.875 C 29.972656 -26.582031 28.023438 -25.9375 25.578125 -25.9375 Z M 25.578125 -25.9375 "/></g></g></g><g fill="#040264" fill-opacity="1"><g transform="translate(83.415882, 245.668656)"><g><path d="M 43.921875 -34.8125 C 44.253906 -34.8125 44.519531 -35.175781 44.71875 -35.90625 L 47.171875 -45 C 47.316406 -45.53125 47.425781 -45.953125 47.5 -46.265625 C 47.570312 -46.578125 47.609375 -46.878906 47.609375 -47.171875 C 47.609375 -48.085938 47.003906 -48.546875 45.796875 -48.546875 L 13.65625 -48.546875 L 13.359375 -47.390625 L 17.34375 -47.390625 L 4.984375 -1.15625 L 1.078125 -1.15625 L 0.796875 0 L 35.109375 0 C 35.785156 0 36.335938 -0.210938 36.765625 -0.640625 C 37.203125 -1.078125 37.515625 -1.632812 37.703125 -2.3125 L 40.375 -12.5 C 40.570312 -13.269531 40.671875 -13.703125 40.671875 -13.796875 C 40.671875 -14.328125 40.5 -14.59375 40.15625 -14.59375 C 39.675781 -14.59375 39.269531 -14.109375 38.9375 -13.140625 C 38.40625 -11.648438 37.726562 -10.179688 36.90625 -8.734375 C 36.09375 -7.296875 35.128906 -6.019531 34.015625 -4.90625 C 32.910156 -3.800781 31.644531 -2.898438 30.21875 -2.203125 C 28.800781 -1.503906 27.226562 -1.15625 25.5 -1.15625 L 16.609375 -1.15625 L 22.96875 -25 L 28.171875 -25 C 29.472656 -25 30.363281 -24.441406 30.84375 -23.328125 C 31.320312 -22.222656 31.5625 -20.851562 31.5625 -19.21875 C 31.5625 -18.832031 31.550781 -18.429688 31.53125 -18.015625 C 31.507812 -17.609375 31.5 -17.210938 31.5 -16.828125 C 31.5 -16.148438 31.710938 -15.8125 32.140625 -15.8125 C 32.429688 -15.8125 32.648438 -16.078125 32.796875 -16.609375 L 36.6875 -32.28125 C 36.738281 -32.53125 36.765625 -32.675781 36.765625 -32.71875 C 36.765625 -32.769531 36.765625 -32.816406 36.765625 -32.859375 C 36.765625 -33.296875 36.597656 -33.515625 36.265625 -33.515625 C 35.921875 -33.515625 35.65625 -33.296875 35.46875 -32.859375 C 34.601562 -31.078125 33.613281 -29.515625 32.5 -28.171875 C 31.394531 -26.828125 30.070312 -26.15625 28.53125 -26.15625 L 23.328125 -26.15625 L 28.96875 -47.390625 L 35.6875 -47.390625 C 37.175781 -47.390625 38.425781 -47.050781 39.4375 -46.375 C 40.445312 -45.695312 41.253906 -44.863281 41.859375 -43.875 C 42.460938 -42.894531 42.882812 -41.828125 43.125 -40.671875 C 43.363281 -39.515625 43.484375 -38.429688 43.484375 -37.421875 C 43.484375 -37.035156 43.46875 -36.695312 43.4375 -36.40625 C 43.414062 -36.113281 43.40625 -35.875 43.40625 -35.6875 C 43.40625 -35.101562 43.578125 -34.8125 43.921875 -34.8125 Z M 43.921875 -34.8125 "/></g></g></g><g fill="#040264" fill-opacity="1"><g transform="translate(140.472045, 245.668656)"><g><path d="M 38.796875 -49.1875 L 33.734375 -49.1875 L 7.21875 -4.90625 C 6.882812 -4.382812 6.472656 -3.894531 5.984375 -3.4375 C 5.503906 -2.976562 4.953125 -2.554688 4.328125 -2.171875 C 3.941406 -1.929688 3.457031 -1.722656 2.875 -1.546875 C 2.300781 -1.378906 1.820312 -1.269531 1.4375 -1.21875 C 1.050781 -1.175781 0.835938 -1.15625 0.796875 -1.15625 L 0.4375 0 L 11.34375 0 L 11.625 -1.15625 C 11.582031 -1.15625 11.367188 -1.175781 10.984375 -1.21875 C 10.597656 -1.269531 10.140625 -1.378906 9.609375 -1.546875 C 9.078125 -1.722656 8.710938 -2.003906 8.515625 -2.390625 C 8.328125 -2.773438 8.269531 -3.207031 8.34375 -3.6875 C 8.414062 -4.164062 8.570312 -4.597656 8.8125 -4.984375 L 14.65625 -15.09375 L 29.109375 -15.09375 L 30.046875 -1.15625 L 23.546875 -1.15625 L 23.265625 0 L 47.75 0 L 48.109375 -1.15625 L 41.828125 -1.15625 Z M 27.671875 -36.90625 L 29.03125 -16.25 L 15.3125 -16.25 Z M 27.671875 -36.90625 "/></g></g></g><g fill="#040264" fill-opacity="1"><g transform="translate(202.655847, 245.668656)"><g><path d="M -0.578125 0 L 33.8125 0 C 34.476562 0 35.03125 -0.210938 35.46875 -0.640625 C 35.90625 -1.078125 36.21875 -1.632812 36.40625 -2.3125 L 39.078125 -12.5 C 39.273438 -13.269531 39.375 -13.703125 39.375 -13.796875 C 39.375 -14.328125 39.203125 -14.59375 38.859375 -14.59375 C 38.378906 -14.59375 37.972656 -14.109375 37.640625 -13.140625 C 37.109375 -11.648438 36.429688 -10.179688 35.609375 -8.734375 C 34.796875 -7.296875 33.832031 -6.019531 32.71875 -4.90625 C 31.613281 -3.800781 30.347656 -2.898438 28.921875 -2.203125 C 27.503906 -1.503906 25.929688 -1.15625 24.203125 -1.15625 L 15.3125 -1.15625 L 27.734375 -47.390625 L 31.640625 -47.390625 L 31.859375 -48.546875 L 12.421875 -48.546875 L 12.203125 -47.390625 L 16.109375 -47.390625 L 3.6875 -1.15625 L -0.21875 -1.15625 Z M -0.578125 0 "/></g></g></g><g fill="#040264" fill-opacity="1"><g transform="translate(255.884354, 245.668656)"><g><path d="M 34.171875 -47.390625 L 34.453125 -48.546875 L 15.09375 -48.546875 L 14.734375 -47.390625 L 18.640625 -47.390625 L 6.28125 -1.15625 L 2.390625 -1.15625 L 2.09375 0 L 21.8125 0 L 22.109375 -1.15625 L 17.921875 -1.15625 L 30.265625 -47.390625 Z M 34.171875 -47.390625 "/></g></g></g><g fill="#040264" fill-opacity="1"><g transform="translate(298.496485, 245.668656)"><g><path d="M 49.34375 -34.234375 L 51.28125 -45.9375 C 51.332031 -46.132812 51.378906 -46.363281 51.421875 -46.625 C 51.472656 -46.894531 51.5 -47.125 51.5 -47.3125 C 51.5 -48.132812 51.039062 -48.546875 50.125 -48.546875 L 15.3125 -48.546875 C 14.59375 -48.546875 14.078125 -48.421875 13.765625 -48.171875 C 13.453125 -47.929688 13.175781 -47.5 12.9375 -46.875 L 8.671875 -34.75 L 10.1875 -34.75 C 11.875 -38.84375 14.039062 -41.972656 16.6875 -44.140625 C 19.332031 -46.304688 22.171875 -47.390625 25.203125 -47.390625 L 26.515625 -47.390625 L 14.15625 -1.15625 L 10.25 -1.15625 L 9.96875 0 L 29.328125 0 L 29.6875 -1.15625 L 25.78125 -1.15625 L 38.140625 -47.390625 L 41.03125 -47.390625 C 41.84375 -47.390625 42.660156 -47.160156 43.484375 -46.703125 C 44.304688 -46.242188 45.050781 -45.554688 45.71875 -44.640625 C 46.394531 -43.722656 46.9375 -42.585938 47.34375 -41.234375 C 47.757812 -39.890625 47.96875 -38.328125 47.96875 -36.546875 C 47.96875 -36.160156 47.953125 -35.773438 47.921875 -35.390625 C 47.898438 -35.003906 47.863281 -34.617188 47.8125 -34.234375 Z M 49.34375 -34.234375 "/></g></g></g><g fill="#040264" fill-opacity="1"><g transform="translate(356.347072, 245.668656)"><g><path d="M 46.65625 -48.609375 L 46.375 -47.453125 C 48.25 -47.453125 49.1875 -46.875 49.1875 -45.71875 C 49.1875 -45.050781 48.851562 -44.234375 48.1875 -43.265625 L 33.8125 -24.125 L 28.171875 -47.390625 L 32.078125 -47.390625 L 32.359375 -48.546875 L 12.359375 -48.546875 L 12.0625 -47.390625 L 15.890625 -47.390625 L 22.96875 -21.375 L 17.546875 -1.15625 L 13.65625 -1.15625 L 13.359375 0 L 32.796875 0 L 33.078125 -1.15625 L 29.1875 -1.15625 L 35.109375 -23.265625 L 49.984375 -43.046875 C 51.085938 -44.441406 52.289062 -45.523438 53.59375 -46.296875 C 54.894531 -47.066406 56.316406 -47.453125 57.859375 -47.453125 L 58.15625 -48.609375 Z M 46.65625 -48.609375 "/></g></g></g></svg>