<?xml version="1.0" encoding="iso-8859-1"?>
<!-- Generator: Adobe Illustrator 18.0.0, SVG Export Plug-In . SVG Version: 6.00 Build 0)  -->
<!DOCTYPE svg PUBLIC "-//W3C//DTD SVG 1.1//EN" "http://www.w3.org/Graphics/SVG/1.1/DTD/svg11.dtd" [
	<!ENTITY ns_flows "http://ns.adobe.com/Flows/1.0/">
	<!ENTITY ns_extend "http://ns.adobe.com/Extensibility/1.0/">
	<!ENTITY ns_ai "http://ns.adobe.com/AdobeIllustrator/10.0/">
	<!ENTITY ns_graphs "http://ns.adobe.com/Graphs/1.0/">
]>
<svg version="1.1" id="Layer_1" xmlns:x="&ns_extend;" xmlns:i="&ns_ai;" xmlns:graph="&ns_graphs;"
	 xmlns="http://www.w3.org/2000/svg" xmlns:xlink="http://www.w3.org/1999/xlink" xmlns:a="http://ns.adobe.com/AdobeSVGViewerExtensions/3.0/"
	 x="0px" y="0px" viewBox="0 0 715.46 715.46" style="enable-background:new 0 0 715.46 715.46;" xml:space="preserve">
<g>
	<g>
		<path style="fill:#71C9C0;" d="M122.266,358.843l-0.913,0.084c-15.341,1.396-16.615,1.296-22.198,0.934l-0.324-0.021
			c-0.743-35.382-0.627-71.298-0.505-109.302c0.049-15.208,0.099-30.901,0.099-47.268c0-0.393-0.191-1.673-2.651-1.673
			c-0.571,0-1.246,0.065-2.007,0.191l-0.895,0.149v58.691c0,4.759,0.095,9.594,0.196,14.711c0.113,5.719,0.23,11.63,0.23,18.118
			c-0.17,18.743,0.21,38.095,0.578,56.811c0.094,4.809,0.189,9.623,0.275,14.437l0.019,1.051h1.051c0.669,0,1.322-0.033,2.264-0.082
			c2.318-0.121,6.633-0.345,17.993-0.345c3.504,0,5.442-0.566,6.481-1.898c0.731-0.934,0.908-2.178,0.528-3.698L122.266,358.843z"/>
		<path style="fill:#71C9C0;" d="M150.023,336.965c0-8.409-0.149-14.451-0.269-19.307c-0.086-3.443-0.158-6.373-0.158-9.259
			c0.21-30.815,0.426-62.68,0.848-104.81c0.123-1.233-0.209-2.485-0.848-3.191c-0.376-0.415-0.858-0.644-1.359-0.644
			c-0.643,0-1.547,0.358-2.203,2.064l-0.07,0.334c-2.053,43.503-2.392,86.485-1.068,135.238c0,3.142,0.157,6.126,0.339,9.583
			c0.24,4.592,0.514,9.799,0.514,17.07v0.663l0.592,0.295c0.979,0.489,1.689,0.706,2.301,0.706c0.727,0,1.695-0.303,2.178-1.752
			l0.055-0.339c0-4.878-0.207-9.659-0.426-14.721C150.286,345.098,150.114,341.158,150.023,336.965z"/>
		<path style="fill:#71C9C0;" d="M212.759,198.789c-5.147-0.247-10.386-0.054-15.419,0.132c-3.222,0.118-6.553,0.24-9.754,0.24
			c-5.58,0-9.995-0.382-13.892-1.203l-0.9-0.023l-0.226,0.113c-0.463,0.231-1.871,0.935-1.871,2.236v0.853
			c0,1.329-0.001,3.143,20.312,3.201c1.774,34.012,1.72,84.415,1.667,133.172c-0.008,8.026-0.017,15.979-0.017,23.763
			c0,1.064,0.465,1.923,1.311,2.418c0.557,0.328,1.266,0.493,2.109,0.493c0.797,0,1.45-0.148,1.521-0.165l0.818-0.192l0.194-20.557
			c0.536-55.638,0.835-86.487-1.413-138.769c2.076,0.223,5.941,0.477,9.699,0.477c9.088,0,10.613-1.397,10.905-2.765l0.024-0.224
			C217.829,200.798,215.974,199.278,212.759,198.789z"/>
		<path style="fill:#71C9C0;" d="M279.495,198.789c-5.147-0.247-10.386-0.054-15.419,0.132c-3.222,0.118-6.553,0.24-9.754,0.24
			c-5.58,0-9.995-0.382-13.892-1.203l-0.9-0.023l-0.226,0.113c-0.463,0.231-1.871,0.935-1.871,2.236v0.853
			c0,1.329-0.001,3.143,20.312,3.201c1.773,34.012,1.72,84.415,1.667,133.172c-0.008,8.026-0.017,15.979-0.017,23.763
			c0,1.064,0.465,1.923,1.311,2.418c0.557,0.328,1.266,0.493,2.109,0.493c0.797,0,1.45-0.148,1.521-0.165l0.818-0.192l0.194-20.557
			c0.536-55.638,0.835-86.487-1.413-138.769c2.076,0.223,5.941,0.477,9.699,0.477c9.088,0,10.613-1.397,10.905-2.765l0.024-0.224
			C284.565,200.798,282.71,199.278,279.495,198.789z"/>
		<path style="fill:#71C9C0;" d="M335.27,358.843l-0.913,0.084c-15.344,1.398-16.616,1.298-22.2,0.934l-0.323-0.021
			c-0.743-35.382-0.627-71.298-0.505-109.301c0.049-15.208,0.099-30.902,0.099-47.269c0-0.393-0.191-1.673-2.651-1.673
			c-0.571,0-1.246,0.065-2.007,0.191l-0.895,0.149v58.691c0,4.759,0.095,9.594,0.196,14.711c0.113,5.719,0.23,11.63,0.23,18.118
			c-0.17,18.743,0.21,38.095,0.578,56.811c0.094,4.809,0.189,9.623,0.275,14.437l0.019,1.051h1.051c0.669,0,1.322-0.033,2.264-0.082
			c2.318-0.121,6.633-0.345,17.993-0.345c3.504,0,5.443-0.566,6.482-1.898c0.729-0.934,0.908-2.178,0.528-3.698L335.27,358.843z"/>
		<path style="fill:#71C9C0;" d="M384.56,359.349c-1.118,0-1.956-0.033-2.928-0.071c-1.373-0.054-3.01-0.119-6.028-0.119
			c-2.761,0-6.21,0.054-10.52,0.163c-0.83-12.432-2.176-62.053-2.266-73.739c1.509,0.008,2.997,0.031,4.423,0.052
			c7.349,0.113,13.057,0.508,13.057-2.404l-0.054-0.339c-0.224-0.667-0.813-2.437-2.324-2.437l-14.915,0.397
			c-0.311-15.271,0.274-30.024,0.838-44.301c0.443-11.196,0.863-21.793,0.888-32.637c9.905,0.013,14.566,0.207,19.491,0.412
			l1.239,0.052l0.155-0.933c0.236-1.415,0.019-2.588-0.644-3.485c-0.805-1.089-2.178-1.729-4.427-2.023
			c-3.583-0.129-6.615-0.19-9.27-0.19c-2.443,0-4.26,0.051-6.005,0.1c-1.591,0.045-3.121,0.089-5.018,0.089h-0.943l-0.119,0.935
			c-2.719,21.451-3.24,70.245-1.501,141.079c0,22.747,2.922,25.379,5.121,25.379c3.173,0,5.944-0.192,8.626-0.378
			c2.514-0.176,4.889-0.341,7.447-0.341c1.908,0,3.729,0.094,5.564,0.286l1.173,0.23v-1.187c0.033-0.123,0.232-0.474,0.362-0.704
			c0.506-0.893,1.133-2.002,0.562-2.981C386.192,359.654,385.525,359.349,384.56,359.349z"/>
	</g>
	<g>
		<path style="fill:#FBB98F;" d="M465.882,199.133c-3.378-1.852-7.19-2.831-11.024-2.831c-11.406,0-23.592,8.855-25.103,28.638
			c-0.265,3.56-0.579,7.409-0.911,11.494c-2.537,31.198-6.373,78.344,1.787,114.412c2.195,9.746,9.464,14.899,21.023,14.899
			c3.564,0,6.72-0.491,8.597-0.842c5.205,0,9.092-2.613,12.236-8.229c15.501-28.029,10.608-96.328,6.312-134.537
			C477.693,211.513,472.988,203.13,465.882,199.133z M477.094,304.787l-0.002,4.032c0,20.484-4.486,50.956-16.841,50.956
			c-0.947,0-5.735-0.27-7.069-5.595c-9.751-37.418-6.206-103.702-1.681-136.692c1.342-9.792,4.832-15.639,9.337-15.639
			c4.922,0,10.994,7.364,12.639,19.688C477.114,248.42,477.102,278.365,477.094,304.787z"/>
		<path style="fill:#FBB98F;" d="M558.6,208.379l0.155,0.23l-0.265-4.99h-0.529c-0.646-0.81-1.986-2.255-3.311-2.255
			c-0.949,0-2.078,0.59-2.078,3.4c0,10.944,0.222,21.593,0.437,31.89c0.186,8.902,0.362,17.377,0.406,25.959
			c-5.317-9.372-11.245-21.49-17.478-34.237c-3.208-6.561-6.465-13.217-9.638-19.473c-1.221-3.663-5.004-11.144-7.608-11.794
			c-4.805-1.068-11.937-0.558-20.523,1.497l-0.838,0.201l0.017,0.862c1.051,51.341,1.706,113.182,1.706,161.392
			c0,3.56,10.551,4.663,14.393,4.663c6.969,0,8.432-2.071,8.432-3.783c0.18-7.343-1.21-122.745-1.954-152.526
			c9.588,22.339,21.635,45.641,33.503,64.741c-0.004,30.343-0.485,52.411-0.805,67.032c-0.437,20.093-0.437,23.391,0.548,24.396
			l0.451,0.387h0.876c0.299,0,0.744-0.09,1.164-0.52c1.432-1.457,5.784-5.892,2.978-155.073
			C558.625,209.644,558.612,208.977,558.6,208.379z"/>
		<path style="fill:#FBB98F;" d="M622.361,359.401c-0.351-0.6-1.018-0.905-1.984-0.905c-1.118,0-1.954-0.033-2.926-0.071
			c-1.373-0.054-3.01-0.119-6.028-0.119c-2.761,0-6.21,0.054-10.52,0.163c-0.83-12.432-2.176-62.053-2.266-73.739
			c1.509,0.008,2.995,0.031,4.421,0.052c7.355,0.113,13.059,0.506,13.059-2.404l-0.054-0.339c-0.224-0.667-0.813-2.437-2.324-2.437
			l-14.915,0.397c-0.311-15.271,0.274-30.024,0.838-44.301c0.443-11.196,0.863-21.793,0.888-32.637
			c9.907,0.013,14.568,0.207,19.493,0.413l1.235,0.051l0.155-0.933c0.284-1.699-0.069-3.322-0.993-4.571
			c-0.901-1.219-2.274-1.983-4.076-2.218c-3.583-0.129-6.615-0.19-9.27-0.19c-2.443,0-4.26,0.051-6.005,0.1
			c-1.591,0.045-3.121,0.089-5.085,0.091l-18.157,1.121l-0.111,0.879c-3.457,27.285-2.726,92.489-1.501,142.359
			c0,22.747,2.922,25.379,5.121,25.379c3.133,0,8.495-0.351,14.169-0.721c9.243-0.602,20.283-1.246,24.739-0.778l1.173,0.23v-1.187
			c0.033-0.123,0.232-0.474,0.362-0.704C622.304,361.489,622.931,360.379,622.361,359.401z"/>
	</g>
	<path style="fill:#FFE39C;" d="M388.688,60.747c2.063-2.01,0.924-5.513-1.926-5.928c-5.33-0.775-10.695-1.42-16.003-2.325
		c-2.844-0.485-4.218-0.549-5.074-3.653c-0.595-2.154,0.078-2.217-1.319-3.795c-0.888-1.003-1.873,0.362-2.39-1.569
		c-0.181-0.677,1.571-0.575,0.439-1.711c-2.412-2.416-3.466-5.196-4.977-8.252c-1.277-2.583-4.958-2.582-6.233,0
		c-3.055,6.189-5.375,15.608-12.123,18.754c-2.217,1.034-4.73,1.181-7.173,1.311c-3.371,0.179-6.689,0.755-10.028,1.241
		c-2.85,0.414-3.988,3.917-1.926,5.928l13.354,13.017c0.819,0.798,1.193,1.949,0.999,3.076c0,0-0.25,1.459-0.609,3.554
		c-0.076-0.179-0.191-0.342-0.363-0.436c0.119,0.561,0.153,1.135,0.145,1.708c-0.131,0.761-0.269,1.571-0.413,2.407
		c-0.044,0.128-0.072,0.26-0.122,0.386c-0.291,0.724-0.666,1.599-0.329,2.245c-0.16,0.935-0.318,1.856-0.469,2.733
		c-0.771,1.628-0.703,4.095-0.992,5.784c-0.486,2.837,2.491,5.001,5.04,3.664c2.404-1.261,5.064-2.418,6.303-5.022
		c-0.573,1.205,5.186-1.978,4.91-1.854c1.365-0.615,3.586-0.905,5.296-1.804c1.012-0.532,2.222-0.532,3.234,0l16.506,8.678
		c2.549,1.34,5.528-0.824,5.043-3.662c-0.521-3.044-1.473-3.743-2.711-6.173c0.437-0.227,0.875-0.453,1.312-0.68
		c0.47-1.613,0.198-3.427-0.725-4.831c-1.216-1.849-0.645-4.458-1.029-6.698c-0.193-1.127,0.18-2.278,0.999-3.076L388.688,60.747z"
		/>
	<path style="fill:#AED6F2;" d="M610.313,128.577c-1.339-5.627-4.358-11.102-8.887-15.356c-10.765-11.532-31.128-9.904-44.692-7.719
		c-22.712,3.659-44.123,12.269-66.578,16.922c-11.913,2.089-24.637,1.164-36.088-2.638c-7.822-2.637-15.368-7.1-19.383-14.518
		c-5.268-11.505,0.114-27.642,11.363-33.561c0.658-0.267,1.336-0.607,2.003-0.811c3.379-1.071,7.124-1.113,10.527-0.354
		c6.711,1.436,13.091,6.712,12.578,13.977c0.01-0.888-0.002-0.219-0.002-0.405c-0.149,1.22-0.496,2.393-1.039,3.517
		c-0.889,1.696-2.353,2.921-3.609,3.539c-1.294,0.635-2.254,0.606-2.721,0.47c-1.166-0.887-2.007-1.729-2.261-3.37
		c-3.015-6.076-12.516-2.742-9.995,3.824c0.34,4.604,5.388,8.468,9.339,9.821c3.315,0.955,7.14,0.447,10.376-1.19
		c3.25-1.638,6.214-4.291,8.217-8c7.272-14.161-4.012-29.187-18.482-32.493c-20.423-4.703-36.253,11.292-38.895,30.826
		c-2.646,19.562,10.392,33.245,28.184,39.606c22.906,8.123,43.384,3.886,65.723-2.097c20.808-5.574,46.822-15.003,68.526-8.697
		c2.237,0.99,4.98,2.05,6.526,4.106c2.207,2.268,3.605,5.104,4.161,7.941c0.588,2.839,0.237,5.631-0.686,7.721
		c-0.929,2.153-2.251,3.473-3.956,4.523c-3.95,2.344-7.541,1.983-10.026,0.951c-1.02-0.44-1.803-0.996-2.245-1.437
		c0.035-6.966-8.353-18.102-15.831-7.301c-0.546,0.843-1.014,1.73-1.404,2.66c-0.802,1.816-1.451,5.18-0.602,8.513
		c0.79,3.365,2.712,6.259,5.113,8.552c2.424,2.326,5.418,4.119,8.951,5.372c3.525,1.208,7.649,1.849,12.044,1.343
		c4.372-0.469,8.976-2.114,12.894-4.8c4.194-2.805,8.067-7.361,9.954-12.645C611.382,140.086,611.682,134.207,610.313,128.577z"/>
	<path style="fill:#AED6F2;" d="M98.324,126.437c1.339-5.627,4.358-11.102,8.887-15.356c10.765-11.532,31.128-9.904,44.692-7.719
		c22.712,3.659,44.123,12.269,66.578,16.922c11.913,2.089,24.637,1.164,36.088-2.638c7.822-2.637,15.368-7.1,19.383-14.518
		c5.268-11.505-0.114-27.642-11.363-33.561c-0.658-0.267-1.336-0.607-2.003-0.811c-3.379-1.071-7.124-1.113-10.527-0.354
		c-6.711,1.436-13.091,6.712-12.578,13.977c-0.01-0.888,0.002-0.219,0.002-0.405c0.149,1.22,0.496,2.393,1.039,3.517
		c0.889,1.696,2.353,2.921,3.609,3.539c1.294,0.635,2.255,0.606,2.721,0.47c1.166-0.887,2.007-1.729,2.261-3.37
		c3.015-6.076,12.516-2.742,9.995,3.824c-0.34,4.604-5.388,8.468-9.339,9.821c-3.315,0.955-7.14,0.447-10.376-1.19
		c-3.25-1.638-6.214-4.291-8.218-8c-7.272-14.161,4.012-29.187,18.482-32.493c20.423-4.703,36.253,11.292,38.895,30.826
		c2.646,19.562-10.392,33.245-28.184,39.606c-22.906,8.123-43.384,3.886-65.723-2.097c-20.808-5.574-46.822-15.003-68.526-8.697
		c-2.237,0.99-4.98,2.05-6.526,4.106c-2.207,2.268-3.605,5.104-4.161,7.941c-0.588,2.839-0.237,5.631,0.686,7.721
		c0.929,2.153,2.251,3.473,3.956,4.523c3.95,2.344,7.541,1.983,10.026,0.951c1.02-0.44,1.803-0.996,2.245-1.437
		c-0.035-6.966,8.353-18.102,15.831-7.301c0.546,0.843,1.014,1.73,1.404,2.66c0.802,1.816,1.451,5.18,0.602,8.513
		c-0.79,3.365-2.712,6.259-5.113,8.552c-2.424,2.326-5.418,4.119-8.951,5.372c-3.525,1.208-7.649,1.849-12.044,1.343
		c-4.372-0.469-8.976-2.114-12.894-4.8c-4.194-2.805-8.067-7.361-9.954-12.645C97.255,137.946,96.955,132.066,98.324,126.437z"/>
	<path style="fill:#FFE39C;" d="M393.816,497.202c1.328-2.556-0.852-5.525-3.688-5.024c-5.304,0.936-10.6,2.007-15.925,2.813
		c-2.853,0.432-4.177,0.801-5.964-1.877c-1.24-1.859-0.621-2.129-2.443-3.189c-1.157-0.674-1.665,0.931-2.761-0.74
		c-0.385-0.586,1.312-1.039-0.121-1.763c-3.048-1.537-4.921-3.846-7.314-6.274c-2.023-2.052-5.518-0.896-5.918,1.955
		c-0.959,6.835-0.207,16.506-5.628,21.611c-1.781,1.677-4.121,2.605-6.4,3.495c-3.144,1.228-6.114,2.815-9.132,4.324
		c-2.576,1.288-2.558,4.971,0.031,6.232l16.763,8.17c1.028,0.501,1.744,1.476,1.914,2.607c0,0,0.22,1.464,0.536,3.565
		c-0.129-0.146-0.289-0.265-0.482-0.3c0.289,0.495,0.501,1.03,0.674,1.577c0.115,0.764,0.237,1.576,0.363,2.415
		c-0.001,0.135,0.013,0.27,0.005,0.404c-0.049,0.779-0.13,1.727,0.392,2.235c0.141,0.938,0.28,1.862,0.412,2.742
		c-0.221,1.788,0.617,4.109,0.873,5.804c0.429,2.846,3.934,3.967,5.935,1.898c1.887-1.952,4.05-3.885,4.409-6.746
		c-0.166,1.324,4.304-3.505,4.081-3.3c1.103-1.012,3.121-1.984,4.463-3.374c0.794-0.823,1.943-1.202,3.071-1.015l18.395,3.061
		c2.841,0.473,4.99-2.516,3.639-5.059c-1.449-2.727-2.573-3.092-4.51-5.011c0.344-0.352,0.688-0.705,1.032-1.057
		c-0.06-1.679-0.887-3.316-2.204-4.36c-1.734-1.374-2.011-4.031-3.078-6.037c-0.537-1.01-0.543-2.219-0.016-3.234L393.816,497.202z"
		/>
	<path style="fill:#FFE39C;" d="M196.174,466.1c2.958-1.667,2.72-6.003-0.403-7.336c-5.839-2.494-11.757-4.851-17.532-7.487
		c-3.094-1.413-4.64-1.901-4.678-5.696c-0.026-2.634,0.759-2.502-0.356-4.723c-0.708-1.411-2.243-0.154-2.249-2.51
		c-0.002-0.826,1.964-0.18,1.017-1.818c-2.018-3.482-2.378-6.968-3.177-10.907c-0.675-3.329-4.869-4.441-7.102-1.884
		c-5.352,6.129-10.842,16.16-19.483,17.705c-2.839,0.508-5.747-0.085-8.57-0.675c-3.895-0.814-7.85-1.161-11.801-1.618
		c-3.373-0.389-5.728,3.258-3.986,6.172l11.282,18.869c0.692,1.157,0.77,2.581,0.209,3.807c0,0-0.726,1.587-1.769,3.865
		c-0.033-0.228-0.114-0.448-0.282-0.606c-0.034,0.675-0.169,1.34-0.351,1.991c-0.379,0.828-0.782,1.708-1.198,2.618
		c-0.088,0.132-0.161,0.275-0.256,0.402c-0.55,0.737-1.242,1.621-1.054,2.459c-0.465,1.016-0.924,2.018-1.36,2.972
		c-1.371,1.622-2.039,4.454-2.879,6.291c-1.411,3.086,1.327,6.451,4.635,5.698c3.12-0.711,6.501-1.225,8.7-3.817
		c-1.017,1.2,6.507-0.686,6.155-0.628c1.741-0.288,4.359,0.053,6.58-0.455c1.314-0.3,2.693,0.065,3.685,0.978l16.185,14.878
		c2.499,2.297,6.548,0.732,6.853-2.648c0.327-3.626-0.547-4.71-1.223-7.853c0.567-0.126,1.134-0.252,1.7-0.378
		c1.024-1.696,1.262-3.845,0.634-5.724c-0.826-2.474,0.613-5.275,0.852-7.943c0.12-1.343,0.894-2.541,2.069-3.203L196.174,466.1z"/>
	<path style="fill:#FFE39C;" d="M428.334,422.178c0.961-1.632-0.367-3.657-2.246-3.427c-3.515,0.43-7.03,0.948-10.554,1.292
		c-1.888,0.184-2.77,0.381-3.85-1.44c-0.75-1.264-0.334-1.42-1.493-2.179c-0.736-0.483-1.125,0.553-1.787-0.582
		c-0.232-0.398,0.897-0.636-0.018-1.161c-1.948-1.116-3.097-2.697-4.584-4.374c-1.257-1.418-3.592-0.781-3.954,1.078
		c-0.868,4.454-0.711,10.83-4.448,13.993c-1.228,1.039-2.796,1.567-4.324,2.072c-2.107,0.697-4.112,1.635-6.147,2.521
		c-1.736,0.756-1.853,3.174-0.197,4.093l10.721,5.948c0.658,0.365,1.094,1.03,1.166,1.779c0,0,0.094,0.969,0.228,2.36
		c-0.08-0.101-0.18-0.184-0.306-0.214c0.172,0.335,0.293,0.694,0.387,1.059c0.049,0.505,0.101,1.043,0.154,1.598
		c-0.006,0.089-0.001,0.178-0.011,0.266c-0.059,0.51-0.146,1.13,0.179,1.481c0.06,0.621,0.119,1.232,0.175,1.815
		c-0.208,1.166,0.262,2.719,0.371,3.841c0.182,1.884,2.445,2.742,3.83,1.453c1.307-1.216,2.794-2.409,3.13-4.275
		c-0.155,0.863,2.948-2.151,2.794-2.025c0.76-0.626,2.118-1.194,3.048-2.06c0.55-0.513,1.317-0.722,2.052-0.559l11.971,2.651
		c1.849,0.409,3.364-1.478,2.566-3.195c-0.857-1.841-1.582-2.12-2.787-3.447c0.238-0.219,0.476-0.439,0.715-0.658
		c0.019-1.105-0.467-2.208-1.295-2.939c-1.091-0.962-1.18-2.716-1.811-4.071c-0.318-0.682-0.279-1.476,0.102-2.124L428.334,422.178z
		"/>
	<path style="fill:#FFE39C;" d="M303.933,602.914c1.757-0.708,1.939-3.122,0.309-4.086c-3.048-1.802-6.15-3.534-9.153-5.411
		c-1.609-1.005-2.428-1.388-2.174-3.489c0.176-1.458,0.601-1.329,0.146-2.637c-0.289-0.831-1.229-0.248-1.062-1.551
		c0.059-0.457,1.099,0.043,0.694-0.931c-0.864-2.072-0.81-4.026-0.966-6.262c-0.132-1.89-2.371-2.809-3.791-1.557
		c-3.404,3.002-7.167,8.15-12.057,8.379c-1.607,0.075-3.172-0.463-4.69-0.994c-2.095-0.733-4.257-1.211-6.409-1.75
		c-1.837-0.46-3.404,1.386-2.652,3.124L267,597c0.299,0.69,0.239,1.483-0.16,2.12c0,0-0.517,0.825-1.258,2.009
		c-0.002-0.128-0.031-0.256-0.112-0.356c-0.068,0.371-0.19,0.729-0.338,1.075c-0.27,0.43-0.556,0.888-0.852,1.361
		c-0.058,0.067-0.109,0.14-0.171,0.204c-0.358,0.368-0.804,0.806-0.761,1.283c-0.331,0.528-0.657,1.049-0.968,1.545
		c-0.876,0.798-1.45,2.315-2.048,3.27c-1.004,1.604,0.266,3.664,2.15,3.487c1.777-0.167,3.684-0.206,5.087-1.48
		c-0.649,0.59,3.648,0.092,3.449,0.099c0.984-0.033,2.407,0.345,3.672,0.225c0.749-0.071,1.484,0.231,1.967,0.808l7.872,9.4
		c1.216,1.452,3.568,0.88,3.981-0.968c0.444-1.982,0.039-2.644-0.107-4.431c0.323-0.029,0.645-0.057,0.968-0.086
		c0.689-0.864,0.976-2.035,0.765-3.119c-0.278-1.428,0.721-2.872,1.047-4.331c0.164-0.734,0.678-1.34,1.376-1.621L303.933,602.914z"
		/>
	<path style="fill:#FFE39C;" d="M556.381,560.054c1.867-1.586,1.104-4.625-1.29-5.142c-4.478-0.967-8.993-1.825-13.445-2.902
		c-2.385-0.577-3.547-0.711-4.094-3.394c-0.38-1.862,0.195-1.877-0.899-3.297c-0.695-0.902-1.61,0.198-1.937-1.47
		c-0.115-0.585,1.367-0.396,0.471-1.427c-1.906-2.19-2.639-4.61-3.745-7.291c-0.934-2.266-4.058-2.479-5.289-0.362
		c-2.951,5.075-5.467,12.932-11.376,15.211c-1.942,0.749-4.082,0.727-6.163,0.696c-2.871-0.043-5.72,0.253-8.581,0.471
		c-2.443,0.186-3.612,3.093-1.978,4.918l10.577,11.82c0.649,0.725,0.899,1.723,0.67,2.668c0,0-0.297,1.224-0.723,2.98
		c-0.055-0.157-0.142-0.301-0.283-0.391c0.068,0.483,0.064,0.972,0.024,1.458c-0.155,0.638-0.32,1.317-0.49,2.018
		c-0.044,0.106-0.076,0.217-0.126,0.32c-0.289,0.598-0.658,1.318-0.41,1.886c-0.19,0.784-0.378,1.556-0.556,2.292
		c-0.749,1.337-0.834,3.434-1.177,4.851c-0.577,2.38,1.824,4.388,4.064,3.401c2.113-0.931,4.438-1.758,5.64-3.896
		c-0.556,0.989,4.516-1.378,4.274-1.288c1.194-0.442,3.095-0.56,4.599-1.224c0.89-0.393,1.916-0.323,2.745,0.188l13.503,8.322
		c2.085,1.285,4.739-0.378,4.492-2.815c-0.265-2.614-1.033-3.261-1.942-5.395c0.384-0.167,0.768-0.334,1.153-0.501
		c0.493-1.342,0.367-2.897-0.335-4.142c-0.924-1.639-0.288-3.82-0.484-5.743c-0.099-0.968,0.285-1.922,1.027-2.552L556.381,560.054z
		"/>
	<path style="fill:#FDD195;" d="M574.808,445.709c1.704-2.234,0.108-5.452-2.702-5.446c-5.253,0.011-10.522,0.152-15.773,0.033
		c-2.814-0.063-4.148,0.07-5.416-2.803c-0.88-1.994-0.24-2.15-1.813-3.474c-0.999-0.841-1.756,0.615-2.529-1.174
		c-0.271-0.628,1.435-0.778,0.18-1.714c-2.671-1.988-4.084-4.521-5.977-7.254c-1.6-2.311-5.152-1.786-6.014,0.887
		c-2.067,6.407-2.966,15.826-9.03,19.822c-1.993,1.313-4.396,1.812-6.735,2.285c-3.227,0.653-6.347,1.68-9.5,2.624
		c-2.691,0.805-3.291,4.347-1.015,5.994l14.738,10.66c0.904,0.654,1.428,1.711,1.402,2.826c0,0-0.034,1.444-0.082,3.516
		c-0.099-0.162-0.233-0.303-0.413-0.369c0.195,0.524,0.309,1.073,0.383,1.628c-0.018,0.753-0.036,1.554-0.056,2.381
		c-0.024,0.129-0.032,0.261-0.063,0.389c-0.177,0.74-0.415,1.638,0.002,2.214c-0.022,0.925-0.043,1.836-0.063,2.704
		c-0.512,1.681-0.096,4.052-0.134,5.723c-0.065,2.807,3.116,4.471,5.385,2.818c2.14-1.559,4.543-3.054,5.367-5.743
		c-0.382,1.244,4.723-2.647,4.474-2.487c1.23-0.787,3.331-1.383,4.854-2.494c0.901-0.658,2.068-0.83,3.121-0.46l17.163,6.025
		c2.65,0.93,5.217-1.581,4.345-4.251c-0.936-2.864-1.954-3.402-3.494-5.571c0.39-0.281,0.779-0.562,1.169-0.843
		c0.224-1.624-0.296-3.335-1.387-4.559c-1.436-1.611-1.256-4.21-1.946-6.317c-0.347-1.06-0.15-2.223,0.527-3.11L574.808,445.709z"/>
	<path style="fill:#FDD195;" d="M465.237,559.269c1.202-1.575,0.076-3.844-1.905-3.84c-3.704,0.008-7.42,0.107-11.123,0.023
		c-1.984-0.045-2.925,0.049-3.819-1.977c-0.621-1.406-0.169-1.516-1.278-2.45c-0.705-0.593-1.238,0.434-1.783-0.828
		c-0.191-0.443,1.012-0.549,0.127-1.209c-1.884-1.402-2.88-3.188-4.215-5.116c-1.128-1.629-3.633-1.259-4.241,0.625
		c-1.458,4.518-2.091,11.16-6.368,13.978c-1.405,0.926-3.1,1.278-4.75,1.612c-2.276,0.46-4.476,1.185-6.699,1.85
		c-1.898,0.568-2.321,3.066-0.716,4.227l10.393,7.517c0.637,0.461,1.007,1.206,0.989,1.993c0,0-0.024,1.018-0.058,2.479
		c-0.07-0.114-0.164-0.214-0.291-0.26c0.137,0.37,0.218,0.757,0.27,1.148c-0.012,0.531-0.026,1.096-0.039,1.679
		c-0.017,0.091-0.023,0.184-0.044,0.275c-0.125,0.522-0.292,1.155,0.001,1.561c-0.015,0.652-0.03,1.295-0.045,1.906
		c-0.361,1.185-0.067,2.857-0.095,4.036c-0.046,1.979,2.197,3.153,3.797,1.987c1.509-1.099,3.203-2.154,3.785-4.05
		c-0.269,0.877,3.331-1.866,3.155-1.754c0.867-0.555,2.349-0.975,3.423-1.759c0.635-0.464,1.458-0.585,2.201-0.325l12.103,4.249
		c1.869,0.656,3.679-1.115,3.064-2.998c-0.66-2.019-1.378-2.399-2.464-3.928c0.275-0.198,0.55-0.396,0.824-0.594
		c0.158-1.145-0.209-2.352-0.978-3.215c-1.013-1.136-0.886-2.969-1.372-4.454c-0.245-0.748-0.106-1.568,0.371-2.193L465.237,559.269
		z"/>
	<path style="fill:#FDD195;" d="M285.008,487.76c1.722-0.98,1.573-3.508-0.251-4.28c-3.412-1.442-6.871-2.804-10.246-4.329
		c-1.809-0.817-2.711-1.099-2.742-3.313c-0.021-1.537,0.437-1.462-0.218-2.755c-0.416-0.822-1.309-0.085-1.318-1.459
		c-0.003-0.482,1.146-0.109,0.589-1.063c-1.185-2.027-1.403-4.06-1.878-6.356c-0.401-1.941-2.851-2.58-4.148-1.083
		c-3.109,3.588-6.289,9.453-11.327,10.374c-1.655,0.303-3.353-0.036-5.002-0.374c-2.275-0.466-4.583-0.66-6.889-0.917
		c-1.969-0.22-3.335,1.914-2.312,3.61l6.625,10.983c0.406,0.674,0.455,1.504,0.131,2.221c0,0-0.42,0.928-1.023,2.259
		c-0.02-0.133-0.068-0.261-0.166-0.353c-0.018,0.394-0.095,0.782-0.2,1.162c-0.219,0.484-0.452,0.998-0.693,1.53
		c-0.051,0.077-0.093,0.161-0.148,0.235c-0.319,0.431-0.721,0.949-0.609,1.437c-0.269,0.594-0.534,1.18-0.787,1.737
		c-0.796,0.95-1.179,2.603-1.665,3.677c-0.816,1.804,0.789,3.761,2.717,3.314c1.819-0.422,3.79-0.729,5.067-2.247
		c-0.591,0.702,3.795-0.415,3.59-0.38c1.015-0.172,2.543,0.021,3.838-0.28c0.766-0.178,1.571,0.032,2.152,0.562l9.477,8.644
		c1.463,1.335,3.822,0.413,3.992-1.561c0.183-2.116-0.33-2.747-0.731-4.579c0.33-0.075,0.661-0.15,0.991-0.225
		c0.593-0.992,0.727-2.246,0.357-3.341c-0.488-1.441,0.346-3.079,0.479-4.636c0.067-0.784,0.516-1.484,1.2-1.873L285.008,487.76z"/>
	<path style="fill:#FDD195;" d="M386.998,663.247c1.236-0.703,1.129-2.517-0.18-3.071c-2.448-1.035-4.93-2.012-7.352-3.106
		c-1.298-0.586-1.945-0.788-1.968-2.377c-0.015-1.103,0.314-1.049-0.157-1.977c-0.299-0.589-0.939-0.061-0.946-1.047
		c-0.002-0.346,0.822-0.078,0.423-0.763c-0.85-1.455-1.007-2.913-1.348-4.561c-0.288-1.393-2.046-1.851-2.976-0.777
		c-2.23,2.575-4.513,6.783-8.128,7.444c-1.188,0.217-2.406-0.026-3.589-0.269c-1.632-0.335-3.288-0.474-4.943-0.658
		c-1.413-0.158-2.393,1.373-1.659,2.59l4.754,7.881c0.292,0.483,0.327,1.079,0.094,1.594c0,0-0.302,0.666-0.734,1.621
		c-0.014-0.095-0.049-0.187-0.119-0.253c-0.013,0.283-0.069,0.561-0.144,0.834c-0.157,0.347-0.324,0.716-0.497,1.098
		c-0.037,0.056-0.067,0.115-0.106,0.169c-0.229,0.31-0.517,0.681-0.437,1.031c-0.193,0.426-0.383,0.846-0.565,1.246
		c-0.571,0.681-0.846,1.868-1.195,2.638c-0.586,1.294,0.566,2.699,1.95,2.378c1.305-0.303,2.72-0.523,3.636-1.612
		c-0.424,0.504,2.723-0.298,2.576-0.273c0.728-0.123,1.825,0.015,2.754-0.201c0.55-0.128,1.127,0.023,1.544,0.403l6.8,6.202
		c1.05,0.958,2.742,0.296,2.865-1.12c0.131-1.519-0.237-1.971-0.525-3.286c0.237-0.054,0.474-0.107,0.711-0.161
		c0.426-0.712,0.522-1.612,0.256-2.397c-0.35-1.034,0.248-2.209,0.344-3.327c0.048-0.562,0.37-1.065,0.861-1.344L386.998,663.247z"
		/>
</g>
<g>
</g>
<g>
</g>
<g>
</g>
<g>
</g>
<g>
</g>
<g>
</g>
</svg>
