<svg xmlns="http://www.w3.org/2000/svg" width="570" height="420" viewBox="0 0 570 420">
  <defs>
    <style>
      .cls-1 {
        fill: #929292;
      }

      .cls-1, .cls-2, .cls-3, .cls-4, .cls-5, .cls-6, .cls-7 {
        fill-rule: evenodd;
      }

      .cls-2 {
        fill: #00ff8a;
      }

      .cls-3 {
        fill: #d800ff;
      }

      .cls-4 {
        fill: #f6ff00;
      }

      .cls-5 {
        fill: #0072ff;
      }

      .cls-6 {
        fill: #9600ff;
      }

      .cls-7 {
        fill: #565656;
      }
    </style>
  </defs>
  <path id="first" class="cls-1" d="M1144.48,210.347,1065.49-57H1144V477.694h-74.66L999.976,387.56,1144,210.347,999.976,24.885Zm-136.8,175.074,71.289,92.273-71.289,88-71.289-88ZM0,477.694H69.844L0,387.255l71.289-88.607L0,210.042l71.289-92.273L0,24.885,65.991-57H0V477.694ZM66.472-57,1398.81,39.856"/>
  <path id="second" class="cls-2" d="M66.472-57L0.482,25.19l71.289,92.579,70.808,92.578L0.482,387.56l69.363,90.134h142.1l-69.362-90.439,71.289-88.607-71.289-88.3,71.289-92.884L142.1,24.579,208.569-57H66.472ZM785.627,117.769l70.808,92.578-70.808,88-71.289-88Z"/>
  <path id="third" class="cls-3" d="M208.569-57h143.06l-65.99,81.579,71.771,93.19-71.771,92.273,71.289,88.606-71.289,88.607L355,477.694H211.941L142.579,387.56l143.06-177.518L142.1,24.885Zm434,174.769,71.289,92.578-71.289,88.3-71.29-88.3Z"/>
  <path id="fourth" class="cls-4" d="M351.629-57H495.171L428.217,24.579l71.771,93.19-71.771,92.273,71.771,88.606-71.771,88.607L498.061,478,355,477.694,285.157,387.56l143.06-177.518L286.12,24.885ZM71.289,118.074L142.1,210.653l-70.808,88L0,210.347Z"/>
  <path id="fifth" class="cls-5" d="M495.171-57H636.787l-65.51,81.579,71.29,93.19L570.8,210.653l71.771,88.3-71.29,88.606L640.64,478H497.58l-69.844-90.44L570.8,210.653,428.217,24.885ZM213.386,117.769l72.253,92.578-71.771,88.3-71.771-88Z"/>
  <path id="sixth" class="cls-6" d="M636.3-57H780.328l-65.99,81.885,71.289,92.578-71.771,93.19,71.289,88L714.819,387.56l68.4,90.134L640.158,478,570.8,387.56l143.06-176.907L570.8,24.885ZM285.639,210.347l71.289,88.3,71.289-88.606L357.41,118.074Z"/>
  <path class="cls-7" d="M779.847-56.694L922.907-57,856.916,24.885l71.771,93.189-71.771,92.273,71.771,88.3-71.771,88.607,69.844,90.439H782.737L714.819,387.56l142.1-177.213L714.338,25.19ZM499.025,118.38l72.252,92.578-71.77,87.69-71.771-88.606Z"/>
</svg>
