<svg xmlns="http://www.w3.org/2000/svg" width="2375" height="1750" viewBox="0 0 2375 1750">
  <defs>
    <style>
      .cls-1, .cls-2, .cls-3 {
        fill: none;
      }

      .cls-1, .cls-2 {
        stroke: #f8e9c6;
      }

      .cls-1 {
        stroke-width: 40px;
      }

      .cls-2 {
        stroke-width: 20px;
      }

      .cls-3 {
        stroke: #d8b163;
        stroke-width: 25px;
      }

      .cls-4 {
        fill: #d8b163;
      }

      .cls-4, .cls-5, .cls-6, .cls-7, .cls-8, .cls-9 {
        fill-rule: evenodd;
      }

      .cls-5 {
        fill: #f8e9c6;
      }

      .cls-6 {
        fill: #0a272d;
      }

      .cls-7 {
        fill: #004364;
      }

      .cls-8 {
        fill: #eaad6a;
      }

      .cls-9 {
        fill: #ffc661;
      }
    </style>
  </defs>
  <circle id="outer_circle" data-name="outer circle" class="cls-1" cx="1164.858" cy="873.138" r="751.482"/>
  <circle id="inner_circle" data-name="inner circle" class="cls-2" cx="1165.482" cy="875.518" r="690.138"/>
  <circle id="inner_circle-2" data-name="inner circle" class="cls-3" cx="1167.513" cy="874.482" r="441.107"/>
  <path id="es_td_bg" data-name="es td bg" class="cls-4" d="M703,752s-35.951,104.518,0,247l-304-1-43-42-1-162,42-41Z"/>
  <path id="es_td_bg-2" data-name="es td bg" class="cls-4" d="M1631.66,750.5s35.93,104.518,0,247l303.86-1,42.98-42,1-162-41.98-41Z"/>
  <path id="left" class="cls-5" d="M367,689H724l-14,35H378l-51,50V971l51,51H710l14,37H372s-13.86-1.34-30-20-51.355-43.9-51-60,0-214,0-214-0.5-7.341,17-24S355.435,688.549,367,689Z"/>
  <path id="right" class="cls-5" d="M1971,691H1614l14,35h332l51,50V973l-51,51H1628l-14,37h352s13.86-1.34,30-20,51.35-43.9,51-60,0-214,0-214,0.5-7.341-17-24S1982.56,690.549,1971,691Z"/>
  <path id="CAKE_BAKERY" data-name="CAKE &amp; BAKERY" class="cls-5" d="M692.256,551.966a7.159,7.159,0,0,1,1.172.662,3.643,3.643,0,0,1,1.211,3.152,36.121,36.121,0,0,1-1.171,7.228,85.866,85.866,0,0,1-10.885,26.08c-6.094,9.838-12.442,16.895-19.375,21.1-8.133,4.975-15.527,5.912-22.219,2.339-6.678-3.557-10.083-10.339-9.873-20.4,0.155-8.521,3.475-18.37,10.1-29.062a75.537,75.537,0,0,1,20.609-22.172,34.154,34.154,0,0,1,6.566-3.906c1.459-.556,2.591-0.539,3.4.041a7.866,7.866,0,0,1,1.034.937q0.981-.583,1.961-1.161-1.674-10.292-3.022-20.725-0.984.536-1.966,1.077a7.677,7.677,0,0,1-1.09,3.72c-0.561.764-2.781,2.407-6.647,5.023a118.571,118.571,0,0,0-18.868,15.2,105.513,105.513,0,0,0-13.682,18.195c-12.652,20.656-17.133,39.446-14.129,54.41,2,10,7,16.757,14.654,20.448a27.081,27.081,0,0,0,18.2,1.791,45.326,45.326,0,0,0,16.8-7.91c9.489-6.772,18.033-16.867,26.217-30.222a120.976,120.976,0,0,0,9.4-18.048,158.675,158.675,0,0,0,6.234-21.177c1-4.225,1.792-6.684,2.3-7.383a6.423,6.423,0,0,1,3.052-1.862q0.191-1.032.384-2.064-9.945,1.032-19.992,2.484-0.187,1.107-.372,2.213h0ZM773.242,481a6.764,6.764,0,0,1,3.2,1.362c1.206,1.276.839,3.093-1.074,5.476l1.145,1.19q12.345-11.994,25.289-23.062l-1.07-1.257a10.1,10.1,0,0,1-4.547,1.708,19.377,19.377,0,0,1-6.092-.937,585.453,585.453,0,0,0-64.52-13.711,5.888,5.888,0,0,1-3.431-1.374c-1.022-1.019-.678-2.817,1.059-5.377q-0.58-.588-1.16-1.175-13.25,13.209-25.832,27.387l1.228,1.1c2.516-1.8,4.363-2.146,5.53-1.082,0.762,0.7,1.362,2.083,1.813,4.157q7.136,32.587,17.209,63.6a14.974,14.974,0,0,1,1.044,5.194,10.519,10.519,0,0,1-1.506,4.322l1.3,1.011q9.7-12.7,19.975-24.659l-1.244-1.084c-2.473,1.985-4.276,2.507-5.426,1.522a6.677,6.677,0,0,1-1.6-3.142q-1.644-5.712-3.191-11.48,14.637-16.853,30.309-32.246,5.821,1.221,11.585,2.554h0Zm-44.868,18.467q-3.865-14.523-7.12-29.369,14.815,2.551,29.293,5.791-11.352,11.406-22.173,23.578h0Zm127.76-83.232c2.937,0.562,4.525,1.064,4.785,1.468,0.5,0.783-.145,1.966-1.921,3.563l0.9,1.385q14.91-9.636,30.324-18.227-0.4-.718-0.809-1.439a14.031,14.031,0,0,1-5.572,1.16,59.777,59.777,0,0,1-9.066-1.516q-23.6-5.076-48.427-8.03,8.367-17.293,18.056-34.308,1.581-2.868,3.2-5.727c2.031-3.539,3.322-5.62,3.81-6.257a16.092,16.092,0,0,1,2.819-2.548l-0.816-1.435q-18.1,10.2-35.6,21.678l0.909,1.378c2.626-1.269,4.215-1.471,4.757-.635,0.356,0.548.019,1.808-.993,3.783q-10.968,21.3-19.959,42.984l-14.873-19.664a2.9,2.9,0,0,1-.607-2.547,8.444,8.444,0,0,1,2.223-3.311q-0.492-.663-0.986-1.325-12.9,9.609-25.376,19.968l1.053,1.272a9.176,9.176,0,0,1,3.774-1.376,2.821,2.821,0,0,1,2.318,1.17l37.667,46.255a3.05,3.05,0,0,1,.8,2.483,7.934,7.934,0,0,1-1.764,3.2l1.052,1.273q11.078-9.2,22.542-17.738l-0.986-1.324a7.432,7.432,0,0,1-3.458.947,3.079,3.079,0,0,1-2.26-1.364l-11.394-15.064q3.16-7.766,6.581-15.5Q837.82,412.895,856.134,416.235Zm85.316-70.421a5.632,5.632,0,0,1,3.234-.484,5.216,5.216,0,0,1,2.615,1.713q1.024-.4,2.05-0.8L942.821,329.7q-1.056.41-2.111,0.823a5.069,5.069,0,0,1-.751,3.066,6.059,6.059,0,0,1-2.741,1.87q-18.111,7.276-35.788,15.764l-7.313-15.027a612.223,612.223,0,0,1,57.061-23.936,6.2,6.2,0,0,1,3.379-.432,5.142,5.142,0,0,1,2.636,1.789q1.085-.381,2.171-0.759-3.041-8.574-6.08-17.15-1.117.39-2.235,0.782a5.164,5.164,0,0,1-.941,3.052,6.476,6.476,0,0,1-2.938,1.834,621.924,621.924,0,0,0-82.083,36.54q0.391,0.726.785,1.452a8.881,8.881,0,0,1,3.9-.555,2.924,2.924,0,0,1,2.053,1.659L899.763,393.1a3.066,3.066,0,0,1,.315,2.574,7.612,7.612,0,0,1-2.293,2.737q0.393,0.726.785,1.452a552.642,552.642,0,0,1,74.392-32.99,5.238,5.238,0,0,1,3.079-.327,5.067,5.067,0,0,1,2.466,1.866q0.981-.342,1.965-0.681l-6.032-17.166q-1.015.349-2.029,0.7a5.065,5.065,0,0,1-.776,3,5.5,5.5,0,0,1-2.65,1.707,565.767,565.767,0,0,0-54.216,22.653q-4.221-8.673-8.441-17.345,17.337-8.329,35.122-15.471h0Zm153.67-50.336c-3.93,3.263-7.72,8.014-11.27,14.244a25.015,25.015,0,0,0-12.47-8.082c4.29-3.16,7.24-5.89,8.78-8.252a11.424,11.424,0,0,0,1.7-8.076c-0.74-5.436-4.52-9.288-11.47-11.384-7.1-2.136-15.16-2.43-24.02-.781a49.533,49.533,0,0,0-20.05,8.133c-6.69,4.863-9.26,10.088-7.92,15.515,1.15,4.675,5.33,8.2,12.37,10.775-12.69,8.112-17.55,16.715-15.27,25.212,1.71,6.377,6.6,10.553,14.49,12.78,6.98,1.994,15,2,24.25.173,11.85-2.333,21.5-7.32,29.39-15.3A45.477,45.477,0,0,0,1093.9,335a28.152,28.152,0,0,0,9.49,1.649c6.41-.375,10.23-0.436,11.46-0.341q-0.735-8.076-1.46-16.152-1.065.093-2.13,0.19c-0.29,1.682-1.4,2.609-3.34,2.8a15.441,15.441,0,0,1-6.34-.721,39.123,39.123,0,0,1-7.69-3.76,17.865,17.865,0,0,1,4.65-7.846,25.132,25.132,0,0,1,4.86-3.935,11.4,11.4,0,0,1,4.35-1.928c1.1-.1,1.86.689,2.29,2.373l2.18-.195q-0.87-9.716-1.75-19.433a43.443,43.443,0,0,0-15.35,7.777h0Zm-35.2-11.545c2.98,1.178,4.67,3.09,5.1,5.7,0.47,2.855-.86,5.365-3.95,7.564a22.338,22.338,0,0,1-8.92,3.526,20.307,20.307,0,0,1-10.66-.479c-3.04-1.088-4.84-2.86-5.37-5.353-0.64-2.96.57-5.6,3.68-7.876a21.658,21.658,0,0,1,9.04-3.695c4.4-.783,8.11-0.567,11.08.609h0Zm4.6,27.471a15.523,15.523,0,0,1,5.4,3.419,8.19,8.19,0,0,1,2.59,4.308c0.47,2.951-1.12,5.8-4.7,8.586a31.075,31.075,0,0,1-13.67,5.812c-5.38,1.04-10.01.856-13.96-.605s-6.35-3.881-7.16-7.328c-0.76-3.276.4-6.416,3.54-9.386a24.668,24.668,0,0,1,12.41-5.968,27.541,27.541,0,0,1,15.55,1.162h0Zm193.59-22.351c0.94-6.068-1.19-11.165-6.55-15.192a30.974,30.974,0,0,0-9.81-4.787,82.745,82.745,0,0,0-15.44-2.7,647.058,647.058,0,0,0-67.48-2.9c0.01,0.549.01,1.1,0.02,1.648a8.651,8.651,0,0,1,3.65,1.314,2.92,2.92,0,0,1,1.02,2.417q0.075,29.727.13,59.455a3.094,3.094,0,0,1-.91,2.422,7.458,7.458,0,0,1-3.25,1.36c0,0.549.01,1.1,0.01,1.647a574.733,574.733,0,0,1,60.53,2.629,82.839,82.839,0,0,0,14.46.361,33.912,33.912,0,0,0,10.74-2.566c6.31-2.784,10.06-7.269,11.08-13.612,1.28-7.948-3.01-14.281-13.16-18.619,8.86-1.892,13.9-6.088,14.96-12.882h0Zm-73.19-13.7q18.765,0.592,37.47,2.294c5.68,0.518,9.63,1.578,11.87,3.083a6.5,6.5,0,0,1,2.81,6.665,6.909,6.909,0,0,1-4.45,5.922c-2.32.956-6.23,1.135-11.75,0.631q-18.21-1.656-36.48-2.233,0.27-8.181.53-16.362h0Zm-0.91,27.938q17.34,0.548,34.62,2.086c6.46,0.577,11.01,1.75,13.61,3.388a7.788,7.788,0,0,1,3.89,8.072,7.942,7.942,0,0,1-5.62,6.965c-2.89,1.024-7.42,1.2-13.63.646q-16.71-1.488-33.49-2.018,0.315-9.57.62-19.139h0Zm151.09,47.906a6.911,6.911,0,0,1,.3,3.437c-0.53,1.671-2.23,2.252-5.11,1.777l-0.48,1.576q15.69,4.74,31.14,10.408l0.57-1.545a9.511,9.511,0,0,1-3.55-3.073,18.832,18.832,0,0,1-2.01-5.716,640.565,640.565,0,0,0-17.71-62.463,6.093,6.093,0,0,1-.39-3.643c0.4-1.385,2.06-1.974,5-1.735,0.16-.527.31-1.054,0.47-1.582q-17.085-4.935-34.38-8.9c-0.13.535-.25,1.07-0.38,1.605,2.6,1.3,3.71,2.733,3.33,4.267a8.273,8.273,0,0,1-2.66,3.608q-23.94,22.152-45,45.957a14.514,14.514,0,0,1-3.8,3.426,9.136,9.136,0,0,1-4.17.775L1256,341q14.505,2.332,28.88,5.413c0.12-.536.23-1.073,0.35-1.61-2.72-1.178-3.93-2.492-3.62-3.972a6.883,6.883,0,0,1,1.9-2.92q4.005-4.215,8.11-8.378,20.355,4.473,40.4,10.4,1.605,5.633,3.08,11.265h0Zm-35.48-29.737q10.365-10.464,21.33-20.578,4.455,14.082,8.23,28.189-14.685-4.188-29.56-7.611h0Zm129.96,69.172c0.93,2.816,1.27,4.437,1.04,4.861-0.44.819-1.78,0.844-4.03,0.1-0.26.487-.52,0.974-0.77,1.461q15.6,8.131,30.75,17.306c0.28-.47.57-0.94,0.86-1.41a14.063,14.063,0,0,1-3.77-4.271,59.692,59.692,0,0,1-3.13-8.612q-7.155-22.962-16.54-45.847,19.02-1.325,38.63-1.308,3.27-.042,6.57-0.045c4.09,0.022,6.55.121,7.34,0.232a16.1,16.1,0,0,1,3.62,1.2c0.29-.471.57-0.942,0.86-1.413q-17.865-10.722-36.3-20.158c-0.26.489-.51,0.977-0.76,1.466,2.37,1.642,3.32,2.915,2.85,3.8-0.3.579-1.56,0.909-3.77,1.01q-23.82,1.041-46.75,4.042,4.95-11.279,9.91-22.556a2.932,2.932,0,0,1,1.91-1.784,8.148,8.148,0,0,1,3.9.276c0.23-.5.45-1,0.68-1.506q-14.4-6.361-29.07-11.975l-0.6,1.538a8.637,8.637,0,0,1,2.93,2.57,2.832,2.832,0,0,1,.08,2.577l-22.05,55.369a3.11,3.11,0,0,1-1.76,1.916,7.6,7.6,0,0,1-3.56.063c-0.19.513-.39,1.025-0.59,1.538q13.02,4.984,25.82,10.637c0.23-.5.45-1,0.68-1.506a7.206,7.206,0,0,1-2.46-2.511,3.079,3.079,0,0,1,.11-2.624l7.59-17.279q8.19-1.123,16.5-2,7.305,17.377,13.28,34.853h0Zm104.32,40.16a5.846,5.846,0,0,1,2.07,2.637,5.183,5.183,0,0,1-.17,3.149c0.58,0.478,1.17.957,1.75,1.438q5.64-6.883,11.29-13.767c-0.6-.5-1.21-0.989-1.81-1.481a5.111,5.111,0,0,1-3.09.809,6.382,6.382,0,0,1-3.05-1.532q-15.675-12.561-32.03-23.91,4.785-6.863,9.55-13.724a598.711,598.711,0,0,1,50.14,38.919,6.618,6.618,0,0,1,2.12,2.817,5.166,5.166,0,0,1-.23,3.218c0.6,0.527,1.19,1.055,1.79,1.584q6.03-6.828,12.05-13.656c-0.61-.545-1.23-1.088-1.84-1.63a5.234,5.234,0,0,1-3.19.617,6.941,6.941,0,0,1-3.13-1.751,608.833,608.833,0,0,0-73.72-54.638c-0.29.465-.59,0.93-0.88,1.4a8.981,8.981,0,0,1,2.43,3.129,2.918,2.918,0,0,1-.44,2.6l-32.28,50.1a3.08,3.08,0,0,1-2.1,1.533,7.721,7.721,0,0,1-3.54-.658c-0.3.465-.59,0.93-0.89,1.395a540.964,540.964,0,0,1,66.71,49.6,5.587,5.587,0,0,1,1.88,2.6,5.108,5.108,0,0,1-.39,3.1q0.81,0.717,1.62,1.437l12.09-13.62c-0.56-.5-1.11-0.991-1.67-1.485a5.1,5.1,0,0,1-3.06.741,5.886,5.886,0,0,1-2.87-1.557,552.528,552.528,0,0,0-47.56-37.039q5.5-7.921,11.02-15.842,16.035,11.139,31.43,23.465h0Zm69.66,69.474q-1.035,14.494-2.75,28.738c-0.41,3.239-.87,5.047-1.34,5.441-0.75.612-1.98,0.071-3.71-1.6l-1.26,1.057q10.98,13.365,21.29,27.621c0.44-.326.89-0.651,1.33-0.976a11.776,11.776,0,0,1-2.05-5.56,56.011,56.011,0,0,1,.82-9.872q1.935-13.543,3.25-27.335c12.98,12.946,23.77,16.62,33.01,9.742a16.9,16.9,0,0,0,5.86-8.02,20.188,20.188,0,0,0,.16-11.846,44.1,44.1,0,0,0-5.25-11.955,128.554,128.554,0,0,0-11.73-15.642,614.2,614.2,0,0,0-45.74-48.07c-0.38.4-.75,0.8-1.13,1.206a9.319,9.319,0,0,1,1.86,3.615,2.883,2.883,0,0,1-.89,2.5l-41.07,43.243a2.95,2.95,0,0,1-2.33,1.056,8.062,8.062,0,0,1-3.41-1.386c-0.37.4-.75,0.8-1.13,1.206q10.59,9.984,20.74,20.632c0.39-.382.79-0.763,1.19-1.145a7.734,7.734,0,0,1-1.43-3.391,3.009,3.009,0,0,1,1.01-2.4q8.355-8.172,16.7-16.343,9.18,9.486,18,19.483h0Zm3.49-40.517q12.18,12.587,23.76,26.031c3.49,4.054,5.8,6.985,6.99,8.714a22.17,22.17,0,0,1,2.75,5.42c1.39,3.945.63,7.08-2.23,9.39s-6.04,2.4-9.54.323a24.025,24.025,0,0,1-4.67-3.659c-1.5-1.487-3.88-4.191-7.2-8.049q-11.235-13.042-23.05-25.254,6.6-6.457,13.19-12.916h0Zm113.38,157.14a40.8,40.8,0,0,1,8.26,4.339,16.961,16.961,0,0,1,4.38,5.208c0.49-.233.99-0.466,1.49-0.7q-9.57-20.42-20.2-39.687l-1.44.8a10.309,10.309,0,0,1,.99,4.11,2.428,2.428,0,0,1-1.07,2.291c-0.63.346-2.38,0-5.23-.993q-13.215-4.582-26.37-8.357,3.135-13.188,5.76-26.653c0.58-2.993,1.12-4.664,1.64-5,1.46-.953,3.33-0.01,5.59,2.874,0.47-.295.93-0.59,1.39-0.885q-11.715-18.677-24.45-36.154l-1.32.981a15.613,15.613,0,0,1,2.23,6.05,40.424,40.424,0,0,1-.39,9.058q-3.045,23.628-7.74,46.522l-20.37,12.729a2.827,2.827,0,0,1-2.63.349,9.645,9.645,0,0,1-3.1-2.448c-0.47.295-.93,0.59-1.39,0.885q8.265,13.181,15.95,27.031c0.47-.269.95-0.537,1.43-0.806a9.352,9.352,0,0,1-.63-3.882,2.907,2.907,0,0,1,1.58-2.124l20.85-11.92q22.29,6.984,44.79,16.38h0Z"/>
  <path id="ES_TD" data-name="ES TD" class="cls-6" d="M491.79,826.564a6.814,6.814,0,0,1,3.592.782,5.492,5.492,0,0,1,2.03,2.669h2.5v-18.6h-2.5a5.329,5.329,0,0,1-2.03,2.7,7,7,0,0,1-3.592.755H448.527V797.392h66.69a6.929,6.929,0,0,1,3.592.766,5.407,5.407,0,0,1,2.03,2.685h2.5V781.808h-2.5a5.416,5.416,0,0,1-2.03,2.682,6.9,6.9,0,0,1-3.592.769H420.258v1.726a9.526,9.526,0,0,1,3.905,1.4,3.036,3.036,0,0,1,1.093,2.534V853.2a3.033,3.033,0,0,1-1.093,2.534,9.511,9.511,0,0,1-3.905,1.4v1.726h96.833a7,7,0,0,1,3.592.755,5.33,5.33,0,0,1,2.031,2.7h2.5V843.28h-2.5a5.33,5.33,0,0,1-2.031,2.7,7,7,0,0,1-3.592.755H448.527V826.564H491.79ZM638.757,790.68a8,8,0,0,1-3.826,1.246,32.421,32.421,0,0,1-5.545-1.246,191.793,191.793,0,0,0-22.022-5.279,118.827,118.827,0,0,0-19.054-1.436q-24.364,0-36.546,8.041-9.294,6.1-9.293,15.434a15.155,15.155,0,0,0,3.67,10.038,24.425,24.425,0,0,0,11.167,7.285,57.916,57.916,0,0,0,10,2.51q5,0.783,17.1,1.646l12.026,0.861q12.1,0.915,16.086,1.991,5.7,1.562,5.7,5.22a6.4,6.4,0,0,1-2.421,4.656,17.554,17.554,0,0,1-6.481,3.579,56.949,56.949,0,0,1-17.727,2.422,96.694,96.694,0,0,1-20.147-2.265q-10.621-2.265-15.7-5.392-3.359-2.049-3.358-4.476v-0.7l-2.264-.755-11.558,18.064,2.265,0.809a7.959,7.959,0,0,1,3.2-1.186,29.208,29.208,0,0,1,5.232,1.4,128.964,128.964,0,0,0,41.778,7.01,116.363,116.363,0,0,0,22.1-1.994q13.822-2.64,20.382-8.136,7.263-6.033,7.262-13.793a15.548,15.548,0,0,0-3.084-9.214,22.29,22.29,0,0,0-8.395-6.951,51.463,51.463,0,0,0-11.987-3.933,142.126,142.126,0,0,0-17.688-2.21l-12.26-.861q-12.339-.863-16.087-1.616-7.261-1.509-7.262-5.656,0-2.532,2.85-4.687a19.719,19.719,0,0,1,7.458-3.232,68.065,68.065,0,0,1,14.6-1.4q18.743,0,32.642,6.686,4.529,2.1,4.529,3.937a6.5,6.5,0,0,1-.078.863l2.187,0.862,12.729-17.33ZM506.666,908.771a7.322,7.322,0,0,1,3.67.74,5.238,5.238,0,0,1,2.031,2.711h2.5V893.187h-2.5a5.263,5.263,0,0,1-2.031,2.708,7.3,7.3,0,0,1-3.67.743H417.252a6.881,6.881,0,0,1-3.554-.743,5.741,5.741,0,0,1-2.069-2.708h-2.5v19.035h2.5a5.227,5.227,0,0,1,2.03-2.711,7.131,7.131,0,0,1,3.593-.74h33.11v55.81a3.033,3.033,0,0,1-1.093,2.534,9.505,9.505,0,0,1-3.905,1.4v1.726h33.267v-1.726a9.494,9.494,0,0,1-3.9-1.4,3.028,3.028,0,0,1-1.094-2.534v-55.81h33.033Zm22.724,58.344a9.5,9.5,0,0,1-3.9,1.4v1.726h59.466a134.355,134.355,0,0,0,24.3-1.807,51.149,51.149,0,0,0,16.645-6.012q16.956-9.975,16.957-29.011a32,32,0,0,0-5.7-18.926q-7.189-10.3-22.193-14.775-10.473-3.073-30.008-3.074H525.486v1.726a9.514,9.514,0,0,1,3.9,1.4,3.034,3.034,0,0,1,1.094,2.534v62.281A3.031,3.031,0,0,1,529.39,967.115Zm24.365-58.344H583a78.49,78.49,0,0,1,17.044,1.483,27.932,27.932,0,0,1,10.946,4.988q8.13,6.308,8.131,18.171,0,16.393-15.09,22.055-7.037,2.643-21.031,2.642H553.755V908.771Z"/>
  <path id="_2022" data-name="2022" class="cls-6" d="M1740.64,835.033a102.869,102.869,0,0,1,11.71-3.757c4.55-1.242,7.46-2.083,8.75-2.522l12.35-3.784q12.045-3.674,19.18-8.116,10.83-6.8,10.83-17.219,0-10.582-11.31-16.945-11.16-6.252-29.77-6.252-25.92,0-43.56,10.475a35.257,35.257,0,0,1-3.93,2.193,6.111,6.111,0,0,1-2.25.384,16.5,16.5,0,0,1-4.49-.987l-1.93,1.206,21.34,15.739,1.77-1.262a9.787,9.787,0,0,1-1.29-3.454q0-3.949,9.71-7.678a59.376,59.376,0,0,1,21.66-3.893q9.555,0,14.56,2.606,5.025,2.6,5.02,7.595c0,2.926-1.41,5.459-4.21,7.6s-7.4,4.214-13.76,6.225l-13.56,4.222q-15.075,4.716-21.74,8-12.915,6.417-17.65,15.627a25.229,25.229,0,0,0-2.33,11.57c0,0.512.03,1.681,0.08,3.51h2.57a4.4,4.4,0,0,1,2.16-2.852,15.441,15.441,0,0,1,5.54-.658h85.28a7.432,7.432,0,0,1,3.77.768,5.432,5.432,0,0,1,2.09,2.742h2.57V835.609h-2.57a5.425,5.425,0,0,1-2.09,2.741,7.421,7.421,0,0,1-3.77.768h-66.99A22.506,22.506,0,0,1,1740.64,835.033Zm110.74-54.975q-12.21,4.223-19.27,11.954a33,33,0,0,0-9,23.142,34.249,34.249,0,0,0,5.46,18.59,37.477,37.477,0,0,0,10.6,10.529q14.22,9.652,35.81,9.651a72.766,72.766,0,0,0,23.61-3.619q11.955-4.113,19.27-12.009a33.613,33.613,0,0,0,6.58-10.584,32.392,32.392,0,0,0,2.41-12.01q0-18.863-16.06-29.667-14.3-9.6-35.89-9.6a73.6,73.6,0,0,0-23.52,3.62h0Zm44.01,16.835q6.99,7.02,6.99,18.151a24.147,24.147,0,0,1-6.99,17.494q-7.47,7.731-20.41,7.732-12.855,0-20.41-7.732a26.216,26.216,0,0,1,0-35.645q7.56-7.732,20.33-7.732,13.02,0.111,20.49,7.732h0ZM1740.64,948.3a102.713,102.713,0,0,1,11.71-3.756c4.55-1.243,7.46-2.084,8.75-2.523l12.35-3.784q12.045-3.674,19.18-8.116,10.83-6.8,10.83-17.219,0-10.582-11.31-16.945-11.16-6.25-29.77-6.251-25.92,0-43.56,10.474a35.257,35.257,0,0,1-3.93,2.193,6.111,6.111,0,0,1-2.25.384,16.5,16.5,0,0,1-4.49-.987l-1.93,1.206,21.34,15.739,1.77-1.261a9.79,9.79,0,0,1-1.29-3.455q0-3.948,9.71-7.677a59.355,59.355,0,0,1,21.66-3.894q9.555,0,14.56,2.606,5.025,2.606,5.02,7.6c0,2.925-1.41,5.458-4.21,7.6s-7.4,4.214-13.76,6.225l-13.56,4.222q-15.075,4.718-21.74,8.006-12.915,6.415-17.65,15.627a25.226,25.226,0,0,0-2.33,11.57c0,0.511.03,1.681,0.08,3.509h2.57a4.4,4.4,0,0,1,2.16-2.851,15.418,15.418,0,0,1,5.54-.658h85.28a7.433,7.433,0,0,1,3.77.767,5.432,5.432,0,0,1,2.09,2.742h2.57V948.878h-2.57a5.432,5.432,0,0,1-2.09,2.742,7.433,7.433,0,0,1-3.77.767h-66.99A22.528,22.528,0,0,1,1740.64,948.3Zm117.21,0a102.37,102.37,0,0,1,11.72-3.756c4.54-1.243,7.46-2.084,8.74-2.523l12.36-3.784q12.03-3.674,19.17-8.116,10.83-6.8,10.83-17.219,0-10.582-11.31-16.945-11.16-6.25-29.77-6.251-25.9,0-43.56,10.474a35.257,35.257,0,0,1-3.93,2.193,6.037,6.037,0,0,1-2.25.384,16.5,16.5,0,0,1-4.49-.987l-1.93,1.206,21.35,15.739,1.76-1.261a9.7,9.7,0,0,1-1.28-3.455q0-3.948,9.7-7.677a59.37,59.37,0,0,1,21.67-3.894q9.54,0,14.56,2.606t5.01,7.6q0,4.388-4.21,7.6t-13.76,6.225l-13.56,4.222q-15.075,4.718-21.74,8.006-12.915,6.415-17.65,15.627a25.356,25.356,0,0,0-2.33,11.57c0,0.511.03,1.681,0.08,3.509h2.57a4.38,4.38,0,0,1,2.17-2.851,15.315,15.315,0,0,1,5.53-.658h85.29a7.484,7.484,0,0,1,3.77.767,5.42,5.42,0,0,1,2.08,2.742h2.57V948.878h-2.57a5.42,5.42,0,0,1-2.08,2.742,7.484,7.484,0,0,1-3.77.767h-67A22.675,22.675,0,0,1,1857.85,948.3Z"/>
  <path id="BORCELLE" class="cls-5" d="M796.6,1274.26c5.31-6.51,6.706-13.95,4.473-22.32a42.363,42.363,0,0,0-5.768-12.47,128.25,128.25,0,0,0-12.112-14.79,589.979,589.979,0,0,1-52.206-65.78c-0.582.46-1.164,0.91-1.746,1.37a11.931,11.931,0,0,1,1.244,4.97,4.337,4.337,0,0,1-1.795,3.11l-62.526,50.04a3.508,3.508,0,0,1-3.408.8,12.684,12.684,0,0,1-4.485-3.33c-0.582.46-1.164,0.91-1.746,1.37a689.192,689.192,0,0,0,61.59,77.49,108.994,108.994,0,0,0,16.878,15.33,46.654,46.654,0,0,0,14.906,7.21c9.7,2.46,17.264.05,22.757-6.78,6.913-8.63,6.2-19.39-1.447-32.68,11.012,5.13,19.478,3.72,25.391-3.54h0Zm-57.724-77.98q14.976,19.47,31.08,37.2c4.881,5.38,7.829,9.71,8.785,13.17s0.113,6.69-2.569,9.68c-2.618,2.93-5.7,3.92-9.254,2.9-3.133-.92-7.293-4.11-12.361-9.69q-16.7-18.42-32.262-38.61,8.29-7.32,16.581-14.65h0Zm-28.313,25.01q15.431,20.04,31.985,38.38c6.188,6.85,10.09,12.25,11.6,16.45,1.742,4.91,1.093,9.12-2.037,12.66-3.159,3.57-7.088,4.49-11.794,2.62-4.094-1.64-9.429-5.91-15.834-13q-17.229-19.1-33.32-39.98l19.4-17.13h0Zm110.43,69.54a40.559,40.559,0,0,0-23.164,14.88,39.868,39.868,0,0,0-7.7,18.2,51.7,51.7,0,0,0,2.4,24.72c5.338,16.05,17.726,31.48,37.016,44.58,25.777,17.44,48.857,21.07,66.884,12.83a37.709,37.709,0,0,0,19.525-19.27c6.25-13.93,5.518-28.15-1.17-42.83-6.307-14.02-17.6-25.92-34.139-37.13-22.15-14.74-41.357-20.54-59.65-15.98h0Zm71.2,52.74c4.665,10.18,4.763,20.15-.185,30.01a26.568,26.568,0,0,1-8.769,10.05,29.671,29.671,0,0,1-15.02,5.05c-9.51.66-19.7-2.48-30.18-9.59s-17.582-15.69-21.2-25.28c-4.311-11.36-3.231-21.35,2.729-29.92,5.971-8.6,14.456-12.56,25.258-12.47,9.143,0.06,18.181,3.29,27.48,9.6,9.347,6.46,15.933,13.83,19.892,22.55h0Zm98.215,83.79q7.543,17.805,16.265,35.43c1.96,4.02,2.87,6.44,2.66,7.28-0.33,1.3-2.07,1.71-5.24,1.19-0.19.74-.39,1.48-0.58,2.22q22.38,6.555,45.09,11.37c0.14-.76.28-1.51,0.43-2.27a14.255,14.255,0,0,1-6.85-3.82c-1.7-1.79-4.22-5.5-7.41-11.16q-9.06-16.155-17.06-32.55c21.9,3.32,34.34-3.85,37.38-19.54a30.418,30.418,0,0,0-.41-13.69,25.751,25.751,0,0,0-7.32-12.2,42.578,42.578,0,0,0-11.52-7.72,161.513,161.513,0,0,0-18.91-6.95,526.7,526.7,0,0,1-64.867-25.44c-0.292.71-.585,1.41-0.877,2.12a9.486,9.486,0,0,1,3.04,3.47,4.732,4.732,0,0,1-.208,3.6l-31,76.77a3.885,3.885,0,0,1-2.447,2.49,10.273,10.273,0,0,1-5.036-.29c-0.292.7-.585,1.41-0.877,2.12q18.509,8.7,37.42,16.12c0.251-.73.5-1.45,0.751-2.17a10.734,10.734,0,0,1-3.762-3.46,4.333,4.333,0,0,1-.157-3.66q5.45-15.3,10.9-30.62Q974.987,1422.135,990.405,1427.36Zm-16.565-50.77q17.91,7.23,36.18,13.13c5.5,1.77,9.31,3.05,11.39,3.95a21.357,21.357,0,0,1,5.67,3.56c3.58,3.07,4.81,7.07,3.61,12.07s-4.13,7.89-8.83,8.6a21.117,21.117,0,0,1-6.85-.13,101.578,101.578,0,0,1-12.06-3.29q-19.035-6.15-37.725-13.69,4.308-12.09,8.615-24.2h0Zm207.91,88.97a11.949,11.949,0,0,1,.2,1.88,5.172,5.172,0,0,1-2.21,3.96,36.507,36.507,0,0,1-8.02,4.45,72.647,72.647,0,0,1-34.34,6.04c-14.26-.91-25.4-4.93-33.12-11.53-9.13-7.76-12.77-17.06-11.39-27.58,1.39-10.55,7.16-18.34,16.91-23.78,8.29-4.67,18.67-6.39,31.46-5.58a79.509,79.509,0,0,1,30.76,8.27,38.34,38.34,0,0,1,7.43,4.42,5.316,5.316,0,0,1,2.14,3.91,15.553,15.553,0,0,1-.15,1.94c0.76,0.42,1.53.85,2.3,1.27q7.9-10.425,15.28-21.07c-0.73-.4-1.46-0.8-2.18-1.2-1.48,1.31-2.72,1.98-3.7,2.01s-3.79-1-8.34-3.18c-9.53-4.65-17.25-7.98-23.42-9.78a106.315,106.315,0,0,0-22.13-3.52c-23.4-1.64-41.43,2.27-55.34,13.33a45.228,45.228,0,0,0-17.13,28.47,41.864,41.864,0,0,0,3.12,25.02,49.094,49.094,0,0,0,14.99,18.67c11.63,9.21,27.83,15,48.01,16.41a100.028,100.028,0,0,0,26.25-1.25c7.35-1.47,16.41-4.59,26.9-9.56,5.06-2.41,8.1-3.67,9.2-3.71s2.52,0.54,4.28,1.73l2.34-1.41q-9.12-9.885-17.71-20.04C1183.35,1464.62,1182.55,1465.09,1181.75,1465.56Zm116.47-24.11a6.749,6.749,0,0,1,4.17.13,7.252,7.252,0,0,1,2.96,2.98c0.92-.21,1.84-0.43,2.77-0.65q-2.565-12.165-5.11-24.33c-0.89.21-1.78,0.42-2.67,0.62a7.2,7.2,0,0,1-1.45,4.03,6.6,6.6,0,0,1-3.66,1.86q-23.28,5.115-46.84,8.24-1.365-11.625-2.73-23.24a537.356,537.356,0,0,0,69.27-13.84,6.088,6.088,0,0,1,3.93-.01,7.029,7.029,0,0,1,2.95,2.89c0.86-.24,1.72-0.48,2.58-0.73q-3.12-12.315-6.25-24.63c-0.82.23-1.64,0.47-2.47,0.7a7.46,7.46,0,0,1-1.16,4.04,5.917,5.917,0,0,1-3.34,1.97,522.52,522.52,0,0,1-96.29,16.48l0.15,2.31a8.614,8.614,0,0,1,4.15,1.55,4.625,4.625,0,0,1,1.39,3.29q3.18,41.6,6.35,83.2a4.309,4.309,0,0,1-1.04,3.5,10.557,10.557,0,0,1-4.51,2.24c0.05,0.77.11,1.54,0.16,2.31a611.48,611.48,0,0,0,114.62-19.83,7.76,7.76,0,0,1,4.43-.19,6.9,6.9,0,0,1,3.25,2.82c0.97-.27,1.95-0.55,2.92-0.84q-3.165-12.3-6.32-24.61l-2.82.81a7.3,7.3,0,0,1-1.43,4.15,7.6,7.6,0,0,1-3.84,2.11,596.176,596.176,0,0,1-78.98,15.93l-3.15-26.82Q1274.345,1446.7,1298.22,1441.45Zm69.53-70.62a4.863,4.863,0,0,1-.03-3.64,8.654,8.654,0,0,1,3.21-3.24c-0.26-.72-0.51-1.45-0.77-2.17q-16.14,6.48-32.59,11.85c0.21,0.74.42,1.47,0.63,2.21a8.543,8.543,0,0,1,4.4.51,4.479,4.479,0,0,1,2.06,2.88q11.865,39.78,23.73,79.57a4.386,4.386,0,0,1-.29,3.66,11.168,11.168,0,0,1-3.96,3.28c0.22,0.73.43,1.47,0.64,2.21a615.544,615.544,0,0,0,105.33-45.67,8.369,8.369,0,0,1,4.42-1.31,6.53,6.53,0,0,1,3.79,1.96c0.91-.51,1.81-1.03,2.72-1.55q-5.64-11.25-11.28-22.51c-0.87.5-1.74,1-2.62,1.49a7.387,7.387,0,0,1-.56,4.4,8.319,8.319,0,0,1-3.45,3.05,601.175,601.175,0,0,1-71.21,33.28Q1379.83,1405.96,1367.75,1370.83Zm107.29-56.55a4.827,4.827,0,0,1-.75-3.57,9.4,9.4,0,0,1,2.56-3.96c-0.39-.65-0.79-1.29-1.18-1.94q-14.76,10.275-30.01,19.42c0.35,0.68.71,1.35,1.06,2.02a8.825,8.825,0,0,1,4.46-.54,4.227,4.227,0,0,1,2.59,2.33q19.515,36.21,39.01,72.41a4.325,4.325,0,0,1,.43,3.66,11.793,11.793,0,0,1-3.28,4.15c0.36,0.67.71,1.34,1.07,2.01a633.078,633.078,0,0,0,95.7-70.62,9.075,9.075,0,0,1,4.15-2.41,6.385,6.385,0,0,1,4.14.98c0.81-.74,1.61-1.47,2.41-2.21q-7.785-9.69-15.57-19.37c-0.77.72-1.54,1.43-2.32,2.14a7.458,7.458,0,0,1,.29,4.48,9.141,9.141,0,0,1-2.84,3.88,620.5,620.5,0,0,1-64.3,50.29l-37.62-63.15h0Zm162.74-90.56a8.493,8.493,0,0,1,3.56-2.97,6.549,6.549,0,0,1,4.18.19l1.95-2.58q-9.075-7.83-18.16-15.66c-0.62.83-1.25,1.65-1.87,2.48a7.5,7.5,0,0,1,1.08,4.3,8.713,8.713,0,0,1-2.01,4.19q-16.56,21.3-34.42,40.58-7.77-8.265-15.54-16.52a603.879,603.879,0,0,0,50.01-61.84,7.934,7.934,0,0,1,3.29-2.98,6.372,6.372,0,0,1,4.13.09c0.58-.85,1.16-1.69,1.74-2.55q-9.63-7.515-19.27-15.05c-0.56.82-1.12,1.63-1.68,2.44a7.437,7.437,0,0,1,1.33,4.12,7.8,7.8,0,0,1-1.67,4.11,580.847,580.847,0,0,1-70.99,82.99c0.49,0.57.97,1.15,1.45,1.72a9.375,9.375,0,0,1,4.34-1.68,4.025,4.025,0,0,1,3.03,1.64l52.8,61.59a4.244,4.244,0,0,1,1.13,3.5,12.892,12.892,0,0,1-2.47,4.94c0.49,0.58.97,1.15,1.45,1.73a678.831,678.831,0,0,0,84.38-99.03,10.122,10.122,0,0,1,3.61-3.49,6.38,6.38,0,0,1,4.33-.2c0.66-.96,1.32-1.93,1.98-2.9q-9.675-7.485-19.34-14.97c-0.63.94-1.26,1.87-1.9,2.79a7.554,7.554,0,0,1,1.17,4.41,10.287,10.287,0,0,1-2.02,4.6,671.038,671.038,0,0,1-56.94,70.68q-8.97-9.54-17.94-19.07Q1620.785,1245.55,1637.78,1223.72Z"/>
  <path id="outlinebread" class="cls-7" d="M908,943s-38.323,168.21,62,214c0,0,94.94,56.74,313-161,0,0,146.81-130.822,189-264,0,0,19.59-58.815-26-106,0,0-58.73-51.576-155-35,0,0-125.67,8.238-226,99C1065,690,936.758,794.2,908,943Z"/>
  <path id="insidebread" class="cls-8" d="M1330,918s-258.3,288.97-364,215c0,0-67.045-31.97-40-183,0,0,64.39,85.01,85,80,0,0,24,2.72,32-25a30.638,30.638,0,0,0-9-30s-59.938-55.1-82-101c0,0,25.8-71.807,69-114,0,0,47.06,76.125,86,102,0,0,25.45,13.9,44-10,0,0,11.11-19.48-2-35,0,0-50.92-47.335-83-102,0,0,39.99-40.851,113-73,0,0,32.89,58.9,87,105,0,0,30.85,24.935,50-14,0,0,7.11-20.9-9-34,0,0-39.76-35.272-68-78,0,0,103.73-32.815,173,5,0,0,89.66,37.136,15,163C1427,789,1358.31,893.089,1330,918Z"/>
  <path id="slicebread" class="cls-9" d="M933,925s46.4,65.758,74,84c0,0,15.32,4.34,17-10,0,0,2.42-5.8-7-13,0,0-53.419-48.089-74-91C943,895,936.06,911.233,933,925Zm101-180s49.56,78.594,85,101c0,0,15.76,4.731,17-11,0,0,2.45-5.269-24-28,0,0-45.49-48.117-61-79Zm186-119-23,9s47.06,72.837,83,99c0,0,10.34,5.009,17-4,0,0,3.8-9.779-3-16C1294,714,1236.92,662.623,1220,626Z"/>
  <path id="dotsbread" class="cls-7" d="M998.5,825A11.5,11.5,0,1,1,987,836.5,11.5,11.5,0,0,1,998.5,825Zm104-119a11.5,11.5,0,1,1-11.5,11.5A11.5,11.5,0,0,1,1102.5,706Zm49-25a11.5,11.5,0,1,1-11.5,11.5A11.5,11.5,0,0,1,1151.5,681Zm163-51a11.5,11.5,0,1,1-11.5,11.5A11.5,11.5,0,0,1,1314.5,630Zm-354,413a11.5,11.5,0,1,1-11.5,11.5A11.5,11.5,0,0,1,960.5,1043Zm296-114a11.5,11.5,0,1,1-11.5,11.5A11.5,11.5,0,0,1,1256.5,929Zm54-59a11.5,11.5,0,1,1-11.5,11.5A11.5,11.5,0,0,1,1310.5,870Z"/>
</svg>
